<mxfile host="app.diagrams.net" modified="2021-05-10T03:27:11.865Z" agent="5.0 (Windows NT 10.0; Win64; x64) AppleWebKit/537.36 (KHTML, like Gecko) Chrome/90.0.4430.93 Safari/537.36 Edg/90.0.818.51" etag="u34OXIYUrHDxRDNS57wl" version="14.6.11" type="github" pages="2">
  <diagram id="JHB0V9J83hy231VBSRS5" name="时序图">
    <mxGraphModel dx="1422" dy="762" grid="0" gridSize="10" guides="1" tooltips="1" connect="1" arrows="1" fold="1" page="0" pageScale="1" pageWidth="827" pageHeight="1169" math="0" shadow="0">
      <root>
        <mxCell id="0" />
        <mxCell id="1" parent="0" />
        <mxCell id="x7ms55XIc7-pgnnKO1B8-1" value="UI" style="rounded=1;whiteSpace=wrap;html=1;" parent="1" vertex="1">
          <mxGeometry x="40" y="110" width="80" height="30" as="geometry" />
        </mxCell>
        <mxCell id="x7ms55XIc7-pgnnKO1B8-2" value="backend" style="rounded=1;whiteSpace=wrap;html=1;" parent="1" vertex="1">
          <mxGeometry x="170" y="110" width="80" height="30" as="geometry" />
        </mxCell>
        <mxCell id="x7ms55XIc7-pgnnKO1B8-3" value="rm" style="rounded=1;whiteSpace=wrap;html=1;" parent="1" vertex="1">
          <mxGeometry x="470" y="110" width="60" height="30" as="geometry" />
        </mxCell>
        <mxCell id="x7ms55XIc7-pgnnKO1B8-4" value="主机" style="rounded=1;whiteSpace=wrap;html=1;" parent="1" vertex="1">
          <mxGeometry x="600" y="110" width="80" height="30" as="geometry" />
        </mxCell>
        <mxCell id="x7ms55XIc7-pgnnKO1B8-5" value="consul" style="rounded=1;whiteSpace=wrap;html=1;" parent="1" vertex="1">
          <mxGeometry x="330" y="110" width="66" height="30" as="geometry" />
        </mxCell>
        <mxCell id="x7ms55XIc7-pgnnKO1B8-6" value="" style="endArrow=none;html=1;dashed=1;" parent="1" source="ttu63wnwoUbBbuzjsD4v-1" edge="1">
          <mxGeometry width="50" height="50" relative="1" as="geometry">
            <mxPoint x="80" y="310" as="sourcePoint" />
            <mxPoint x="80" y="140" as="targetPoint" />
          </mxGeometry>
        </mxCell>
        <mxCell id="x7ms55XIc7-pgnnKO1B8-7" value="" style="endArrow=none;html=1;dashed=1;" parent="1" source="ttu63wnwoUbBbuzjsD4v-7" edge="1">
          <mxGeometry width="50" height="50" relative="1" as="geometry">
            <mxPoint x="210" y="310" as="sourcePoint" />
            <mxPoint x="209.65999999999997" y="140" as="targetPoint" />
          </mxGeometry>
        </mxCell>
        <mxCell id="x7ms55XIc7-pgnnKO1B8-8" value="" style="endArrow=none;html=1;dashed=1;" parent="1" edge="1">
          <mxGeometry width="50" height="50" relative="1" as="geometry">
            <mxPoint x="363" y="310" as="sourcePoint" />
            <mxPoint x="362.6600000000001" y="140" as="targetPoint" />
          </mxGeometry>
        </mxCell>
        <mxCell id="x7ms55XIc7-pgnnKO1B8-9" value="" style="endArrow=none;html=1;dashed=1;" parent="1" source="ttu63wnwoUbBbuzjsD4v-9" edge="1">
          <mxGeometry width="50" height="50" relative="1" as="geometry">
            <mxPoint x="500" y="310" as="sourcePoint" />
            <mxPoint x="499.6600000000001" y="140" as="targetPoint" />
          </mxGeometry>
        </mxCell>
        <mxCell id="x7ms55XIc7-pgnnKO1B8-10" value="" style="endArrow=none;html=1;dashed=1;" parent="1" edge="1">
          <mxGeometry width="50" height="50" relative="1" as="geometry">
            <mxPoint x="640" y="310" as="sourcePoint" />
            <mxPoint x="639.6599999999999" y="140" as="targetPoint" />
          </mxGeometry>
        </mxCell>
        <mxCell id="x7ms55XIc7-pgnnKO1B8-11" value="" style="endArrow=classic;html=1;" parent="1" edge="1">
          <mxGeometry width="50" height="50" relative="1" as="geometry">
            <mxPoint x="80" y="190" as="sourcePoint" />
            <mxPoint x="210" y="190" as="targetPoint" />
          </mxGeometry>
        </mxCell>
        <mxCell id="x7ms55XIc7-pgnnKO1B8-12" value="添加主机" style="shape=callout;whiteSpace=wrap;html=1;perimeter=calloutPerimeter;" parent="1" vertex="1">
          <mxGeometry x="50" y="40" width="60" height="60" as="geometry" />
        </mxCell>
        <mxCell id="x7ms55XIc7-pgnnKO1B8-13" value="查询主机资源" style="text;html=1;resizable=0;autosize=1;align=center;verticalAlign=middle;points=[];fillColor=none;strokeColor=none;rounded=0;" parent="1" vertex="1">
          <mxGeometry x="100" y="170" width="90" height="20" as="geometry" />
        </mxCell>
        <mxCell id="x7ms55XIc7-pgnnKO1B8-14" value="" style="endArrow=classic;html=1;" parent="1" edge="1">
          <mxGeometry width="50" height="50" relative="1" as="geometry">
            <mxPoint x="210" y="205" as="sourcePoint" />
            <mxPoint x="500" y="205" as="targetPoint" />
          </mxGeometry>
        </mxCell>
        <mxCell id="x7ms55XIc7-pgnnKO1B8-15" value="调用rm查询资源" style="text;html=1;resizable=0;autosize=1;align=center;verticalAlign=middle;points=[];fillColor=none;strokeColor=none;rounded=0;" parent="1" vertex="1">
          <mxGeometry x="255" y="180" width="100" height="20" as="geometry" />
        </mxCell>
        <mxCell id="x7ms55XIc7-pgnnKO1B8-16" value="" style="endArrow=classic;html=1;" parent="1" edge="1">
          <mxGeometry width="50" height="50" relative="1" as="geometry">
            <mxPoint x="500" y="220" as="sourcePoint" />
            <mxPoint x="640" y="220" as="targetPoint" />
          </mxGeometry>
        </mxCell>
        <mxCell id="x7ms55XIc7-pgnnKO1B8-17" value="查询" style="text;html=1;resizable=0;autosize=1;align=center;verticalAlign=middle;points=[];fillColor=none;strokeColor=none;rounded=0;" parent="1" vertex="1">
          <mxGeometry x="550" y="200" width="40" height="20" as="geometry" />
        </mxCell>
        <mxCell id="x7ms55XIc7-pgnnKO1B8-18" value="" style="endArrow=classic;html=1;" parent="1" edge="1">
          <mxGeometry width="50" height="50" relative="1" as="geometry">
            <mxPoint x="500" y="240" as="sourcePoint" />
            <mxPoint x="210" y="240" as="targetPoint" />
          </mxGeometry>
        </mxCell>
        <mxCell id="x7ms55XIc7-pgnnKO1B8-19" value="返回资源详情" style="text;html=1;resizable=0;autosize=1;align=center;verticalAlign=middle;points=[];fillColor=none;strokeColor=none;rounded=0;" parent="1" vertex="1">
          <mxGeometry x="260" y="220" width="90" height="20" as="geometry" />
        </mxCell>
        <mxCell id="x7ms55XIc7-pgnnKO1B8-20" value="" style="endArrow=classic;html=1;" parent="1" edge="1">
          <mxGeometry width="50" height="50" relative="1" as="geometry">
            <mxPoint x="210" y="260" as="sourcePoint" />
            <mxPoint x="80" y="260" as="targetPoint" />
          </mxGeometry>
        </mxCell>
        <mxCell id="x7ms55XIc7-pgnnKO1B8-21" value="返回前端" style="text;html=1;resizable=0;autosize=1;align=center;verticalAlign=middle;points=[];fillColor=none;strokeColor=none;rounded=0;" parent="1" vertex="1">
          <mxGeometry x="115" y="240" width="60" height="20" as="geometry" />
        </mxCell>
        <mxCell id="x7ms55XIc7-pgnnKO1B8-22" value="UI" style="rounded=1;whiteSpace=wrap;html=1;" parent="1" vertex="1">
          <mxGeometry x="40" y="420" width="80" height="30" as="geometry" />
        </mxCell>
        <mxCell id="x7ms55XIc7-pgnnKO1B8-23" value="backend" style="rounded=1;whiteSpace=wrap;html=1;" parent="1" vertex="1">
          <mxGeometry x="170" y="420" width="80" height="30" as="geometry" />
        </mxCell>
        <mxCell id="x7ms55XIc7-pgnnKO1B8-24" value="rm" style="rounded=1;whiteSpace=wrap;html=1;" parent="1" vertex="1">
          <mxGeometry x="470" y="420" width="60" height="30" as="geometry" />
        </mxCell>
        <mxCell id="x7ms55XIc7-pgnnKO1B8-25" value="主机" style="rounded=1;whiteSpace=wrap;html=1;" parent="1" vertex="1">
          <mxGeometry x="600" y="420" width="80" height="30" as="geometry" />
        </mxCell>
        <mxCell id="x7ms55XIc7-pgnnKO1B8-26" value="consul" style="rounded=1;whiteSpace=wrap;html=1;" parent="1" vertex="1">
          <mxGeometry x="330" y="420" width="66" height="30" as="geometry" />
        </mxCell>
        <mxCell id="x7ms55XIc7-pgnnKO1B8-27" value="" style="endArrow=none;html=1;dashed=1;" parent="1" source="ttu63wnwoUbBbuzjsD4v-11" edge="1">
          <mxGeometry width="50" height="50" relative="1" as="geometry">
            <mxPoint x="80" y="922.0689655172414" as="sourcePoint" />
            <mxPoint x="80" y="450" as="targetPoint" />
          </mxGeometry>
        </mxCell>
        <mxCell id="x7ms55XIc7-pgnnKO1B8-28" value="" style="endArrow=none;html=1;dashed=1;" parent="1" source="ttu63wnwoUbBbuzjsD4v-15" edge="1">
          <mxGeometry width="50" height="50" relative="1" as="geometry">
            <mxPoint x="209.66000000000008" y="922.0689655172414" as="sourcePoint" />
            <mxPoint x="209.66000000000008" y="450" as="targetPoint" />
          </mxGeometry>
        </mxCell>
        <mxCell id="x7ms55XIc7-pgnnKO1B8-29" value="" style="endArrow=none;html=1;dashed=1;" parent="1" edge="1">
          <mxGeometry width="50" height="50" relative="1" as="geometry">
            <mxPoint x="362.6600000000001" y="922.0689655172414" as="sourcePoint" />
            <mxPoint x="362.6600000000001" y="450" as="targetPoint" />
          </mxGeometry>
        </mxCell>
        <mxCell id="x7ms55XIc7-pgnnKO1B8-30" value="" style="endArrow=none;html=1;dashed=1;" parent="1" source="x7ms55XIc7-pgnnKO1B8-51" edge="1">
          <mxGeometry width="50" height="50" relative="1" as="geometry">
            <mxPoint x="499.65999999999985" y="922.0689655172414" as="sourcePoint" />
            <mxPoint x="499.65999999999985" y="450" as="targetPoint" />
          </mxGeometry>
        </mxCell>
        <mxCell id="x7ms55XIc7-pgnnKO1B8-31" value="" style="endArrow=none;html=1;dashed=1;" parent="1" source="ttu63wnwoUbBbuzjsD4v-22" edge="1">
          <mxGeometry width="50" height="50" relative="1" as="geometry">
            <mxPoint x="639.6599999999999" y="922.0689655172414" as="sourcePoint" />
            <mxPoint x="639.6599999999999" y="450" as="targetPoint" />
          </mxGeometry>
        </mxCell>
        <mxCell id="x7ms55XIc7-pgnnKO1B8-32" value="" style="endArrow=classic;html=1;" parent="1" edge="1">
          <mxGeometry width="50" height="50" relative="1" as="geometry">
            <mxPoint x="80" y="527" as="sourcePoint" />
            <mxPoint x="210" y="527" as="targetPoint" />
          </mxGeometry>
        </mxCell>
        <mxCell id="x7ms55XIc7-pgnnKO1B8-33" value="创建实例" style="shape=callout;whiteSpace=wrap;html=1;perimeter=calloutPerimeter;" parent="1" vertex="1">
          <mxGeometry x="50" y="350" width="60" height="60" as="geometry" />
        </mxCell>
        <mxCell id="x7ms55XIc7-pgnnKO1B8-34" value="实例创建" style="text;html=1;resizable=0;autosize=1;align=center;verticalAlign=middle;points=[];fillColor=none;strokeColor=none;rounded=0;" parent="1" vertex="1">
          <mxGeometry x="115" y="507" width="60" height="20" as="geometry" />
        </mxCell>
        <mxCell id="x7ms55XIc7-pgnnKO1B8-35" value="" style="endArrow=classic;html=1;" parent="1" edge="1">
          <mxGeometry width="50" height="50" relative="1" as="geometry">
            <mxPoint x="210" y="595" as="sourcePoint" />
            <mxPoint x="360" y="595" as="targetPoint" />
          </mxGeometry>
        </mxCell>
        <mxCell id="x7ms55XIc7-pgnnKO1B8-36" value="保存实例信息&lt;br&gt;状态为agent_offline" style="text;html=1;resizable=0;autosize=1;align=center;verticalAlign=middle;points=[];fillColor=none;strokeColor=none;rounded=0;" parent="1" vertex="1">
          <mxGeometry x="225" y="565" width="120" height="30" as="geometry" />
        </mxCell>
        <mxCell id="x7ms55XIc7-pgnnKO1B8-37" value="" style="curved=1;endArrow=classic;html=1;" parent="1" edge="1">
          <mxGeometry width="50" height="50" relative="1" as="geometry">
            <mxPoint x="210" y="537" as="sourcePoint" />
            <mxPoint x="210" y="567" as="targetPoint" />
            <Array as="points">
              <mxPoint x="270" y="547" />
            </Array>
          </mxGeometry>
        </mxCell>
        <mxCell id="x7ms55XIc7-pgnnKO1B8-38" value="资源检查" style="text;html=1;strokeColor=none;fillColor=none;align=center;verticalAlign=middle;whiteSpace=wrap;rounded=0;" parent="1" vertex="1">
          <mxGeometry x="250" y="542" width="50" height="20" as="geometry" />
        </mxCell>
        <mxCell id="x7ms55XIc7-pgnnKO1B8-39" value="" style="curved=1;endArrow=classic;html=1;" parent="1" edge="1">
          <mxGeometry width="50" height="50" relative="1" as="geometry">
            <mxPoint x="80" y="470" as="sourcePoint" />
            <mxPoint x="80" y="500" as="targetPoint" />
            <Array as="points">
              <mxPoint x="140" y="480" />
            </Array>
          </mxGeometry>
        </mxCell>
        <mxCell id="x7ms55XIc7-pgnnKO1B8-40" value="添加主机" style="text;html=1;strokeColor=none;fillColor=none;align=center;verticalAlign=middle;whiteSpace=wrap;rounded=0;" parent="1" vertex="1">
          <mxGeometry x="120" y="475" width="50" height="20" as="geometry" />
        </mxCell>
        <mxCell id="x7ms55XIc7-pgnnKO1B8-41" value="" style="endArrow=classic;html=1;" parent="1" edge="1">
          <mxGeometry width="50" height="50" relative="1" as="geometry">
            <mxPoint x="210" y="634.31" as="sourcePoint" />
            <mxPoint x="500" y="634.31" as="targetPoint" />
          </mxGeometry>
        </mxCell>
        <mxCell id="x7ms55XIc7-pgnnKO1B8-42" value="遍历所有主机&lt;br&gt;修改状态为&lt;br&gt;agent_online" style="text;html=1;resizable=0;autosize=1;align=center;verticalAlign=middle;points=[];fillColor=none;strokeColor=none;rounded=0;" parent="1" vertex="1">
          <mxGeometry x="236" y="657.15" width="90" height="50" as="geometry" />
        </mxCell>
        <mxCell id="x7ms55XIc7-pgnnKO1B8-45" value="" style="curved=1;endArrow=classic;html=1;exitX=0.75;exitY=0;exitDx=0;exitDy=0;" parent="1" source="ttu63wnwoUbBbuzjsD4v-17" edge="1">
          <mxGeometry width="50" height="50" relative="1" as="geometry">
            <mxPoint x="210" y="670" as="sourcePoint" />
            <mxPoint x="210" y="730" as="targetPoint" />
            <Array as="points">
              <mxPoint x="250" y="682" />
            </Array>
          </mxGeometry>
        </mxCell>
        <mxCell id="x7ms55XIc7-pgnnKO1B8-46" value="" style="endArrow=classic;html=1;" parent="1" edge="1">
          <mxGeometry width="50" height="50" relative="1" as="geometry">
            <mxPoint x="500" y="640" as="sourcePoint" />
            <mxPoint x="640" y="640" as="targetPoint" />
          </mxGeometry>
        </mxCell>
        <mxCell id="x7ms55XIc7-pgnnKO1B8-47" value="下发软件，并启动agent" style="text;html=1;resizable=0;autosize=1;align=center;verticalAlign=middle;points=[];fillColor=none;strokeColor=none;rounded=0;" parent="1" vertex="1">
          <mxGeometry x="500" y="620" width="140" height="20" as="geometry" />
        </mxCell>
        <mxCell id="x7ms55XIc7-pgnnKO1B8-48" value="" style="curved=1;endArrow=classic;html=1;" parent="1" edge="1">
          <mxGeometry width="50" height="50" relative="1" as="geometry">
            <mxPoint x="640" y="640" as="sourcePoint" />
            <mxPoint x="640" y="680" as="targetPoint" />
            <Array as="points">
              <mxPoint x="700" y="660" />
            </Array>
          </mxGeometry>
        </mxCell>
        <mxCell id="x7ms55XIc7-pgnnKO1B8-49" value="" style="endArrow=classic;html=1;" parent="1" edge="1">
          <mxGeometry width="50" height="50" relative="1" as="geometry">
            <mxPoint x="640" y="680" as="sourcePoint" />
            <mxPoint x="360" y="680" as="targetPoint" />
          </mxGeometry>
        </mxCell>
        <mxCell id="x7ms55XIc7-pgnnKO1B8-50" value="处理" style="text;html=1;strokeColor=none;fillColor=none;align=center;verticalAlign=middle;whiteSpace=wrap;rounded=0;" parent="1" vertex="1">
          <mxGeometry x="680" y="652" width="50" height="20" as="geometry" />
        </mxCell>
        <mxCell id="x7ms55XIc7-pgnnKO1B8-51" value="修改状态为agent_online" style="text;html=1;resizable=0;autosize=1;align=center;verticalAlign=middle;points=[];fillColor=none;strokeColor=none;rounded=0;" parent="1" vertex="1">
          <mxGeometry x="430" y="660" width="140" height="20" as="geometry" />
        </mxCell>
        <mxCell id="x7ms55XIc7-pgnnKO1B8-52" value="" style="endArrow=none;html=1;dashed=1;" parent="1" target="x7ms55XIc7-pgnnKO1B8-51" edge="1">
          <mxGeometry width="50" height="50" relative="1" as="geometry">
            <mxPoint x="499.65999999999985" y="922.0689655172414" as="sourcePoint" />
            <mxPoint x="499.65999999999985" y="450" as="targetPoint" />
          </mxGeometry>
        </mxCell>
        <mxCell id="x7ms55XIc7-pgnnKO1B8-53" value="通知rm开始创建" style="text;html=1;resizable=0;autosize=1;align=center;verticalAlign=middle;points=[];fillColor=none;strokeColor=none;rounded=0;" parent="1" vertex="1">
          <mxGeometry x="313" y="614.31" width="100" height="20" as="geometry" />
        </mxCell>
        <mxCell id="x7ms55XIc7-pgnnKO1B8-54" value="" style="endArrow=classic;html=1;" parent="1" edge="1">
          <mxGeometry width="50" height="50" relative="1" as="geometry">
            <mxPoint x="212.5" y="783" as="sourcePoint" />
            <mxPoint x="362.5" y="783" as="targetPoint" />
            <Array as="points">
              <mxPoint x="282.5" y="783" />
            </Array>
          </mxGeometry>
        </mxCell>
        <mxCell id="x7ms55XIc7-pgnnKO1B8-55" value="遍历修改状态所有主机&lt;br&gt;状态为provisioned" style="text;html=1;resizable=0;autosize=1;align=center;verticalAlign=middle;points=[];fillColor=none;strokeColor=none;rounded=0;" parent="1" vertex="1">
          <mxGeometry x="207.5" y="750" width="140" height="30" as="geometry" />
        </mxCell>
        <mxCell id="x7ms55XIc7-pgnnKO1B8-56" value="" style="endArrow=classic;html=1;" parent="1" edge="1">
          <mxGeometry width="50" height="50" relative="1" as="geometry">
            <mxPoint x="210" y="619.31" as="sourcePoint" />
            <mxPoint x="80" y="619.31" as="targetPoint" />
          </mxGeometry>
        </mxCell>
        <mxCell id="x7ms55XIc7-pgnnKO1B8-57" value="返回前端&lt;br&gt;creating状态" style="text;html=1;resizable=0;autosize=1;align=center;verticalAlign=middle;points=[];fillColor=none;strokeColor=none;rounded=0;" parent="1" vertex="1">
          <mxGeometry x="100" y="584.31" width="80" height="30" as="geometry" />
        </mxCell>
        <mxCell id="x7ms55XIc7-pgnnKO1B8-58" value="" style="curved=1;endArrow=classic;html=1;" parent="1" edge="1">
          <mxGeometry width="50" height="50" relative="1" as="geometry">
            <mxPoint x="640" y="710" as="sourcePoint" />
            <mxPoint x="640" y="820" as="targetPoint" />
            <Array as="points">
              <mxPoint x="710" y="750" />
            </Array>
          </mxGeometry>
        </mxCell>
        <mxCell id="x7ms55XIc7-pgnnKO1B8-59" value="查询主机状态&lt;br&gt;直到为provisioned" style="text;html=1;strokeColor=none;fillColor=none;align=center;verticalAlign=middle;whiteSpace=wrap;rounded=0;" parent="1" vertex="1">
          <mxGeometry x="680" y="750" width="90" height="20" as="geometry" />
        </mxCell>
        <mxCell id="x7ms55XIc7-pgnnKO1B8-60" value="" style="curved=1;endArrow=classic;html=1;" parent="1" edge="1">
          <mxGeometry width="50" height="50" relative="1" as="geometry">
            <mxPoint x="640" y="840" as="sourcePoint" />
            <mxPoint x="640" y="880" as="targetPoint" />
            <Array as="points">
              <mxPoint x="700" y="860" />
            </Array>
          </mxGeometry>
        </mxCell>
        <mxCell id="x7ms55XIc7-pgnnKO1B8-61" value="安装" style="text;html=1;strokeColor=none;fillColor=none;align=center;verticalAlign=middle;whiteSpace=wrap;rounded=0;" parent="1" vertex="1">
          <mxGeometry x="680" y="850" width="50" height="20" as="geometry" />
        </mxCell>
        <mxCell id="x7ms55XIc7-pgnnKO1B8-62" value="UI" style="rounded=1;whiteSpace=wrap;html=1;" parent="1" vertex="1">
          <mxGeometry x="46" y="1920" width="80" height="30" as="geometry" />
        </mxCell>
        <mxCell id="x7ms55XIc7-pgnnKO1B8-63" value="backend" style="rounded=1;whiteSpace=wrap;html=1;" parent="1" vertex="1">
          <mxGeometry x="176" y="1920" width="80" height="30" as="geometry" />
        </mxCell>
        <mxCell id="x7ms55XIc7-pgnnKO1B8-64" value="rm" style="rounded=1;whiteSpace=wrap;html=1;" parent="1" vertex="1">
          <mxGeometry x="476" y="1920" width="60" height="30" as="geometry" />
        </mxCell>
        <mxCell id="x7ms55XIc7-pgnnKO1B8-65" value="主机" style="rounded=1;whiteSpace=wrap;html=1;" parent="1" vertex="1">
          <mxGeometry x="606" y="1920" width="80" height="30" as="geometry" />
        </mxCell>
        <mxCell id="x7ms55XIc7-pgnnKO1B8-66" value="consul" style="rounded=1;whiteSpace=wrap;html=1;" parent="1" vertex="1">
          <mxGeometry x="336" y="1920" width="66" height="30" as="geometry" />
        </mxCell>
        <mxCell id="x7ms55XIc7-pgnnKO1B8-67" value="" style="endArrow=none;html=1;dashed=1;" parent="1" source="ttu63wnwoUbBbuzjsD4v-53" edge="1">
          <mxGeometry width="50" height="50" relative="1" as="geometry">
            <mxPoint x="86" y="2422.0689655172414" as="sourcePoint" />
            <mxPoint x="86" y="1950" as="targetPoint" />
          </mxGeometry>
        </mxCell>
        <mxCell id="x7ms55XIc7-pgnnKO1B8-68" value="" style="endArrow=none;html=1;dashed=1;" parent="1" edge="1">
          <mxGeometry width="50" height="50" relative="1" as="geometry">
            <mxPoint x="215.94742268041227" y="2032" as="sourcePoint" />
            <mxPoint x="215.66000000000008" y="1950" as="targetPoint" />
          </mxGeometry>
        </mxCell>
        <mxCell id="x7ms55XIc7-pgnnKO1B8-69" value="" style="endArrow=none;html=1;dashed=1;" parent="1" source="ttu63wnwoUbBbuzjsD4v-57" edge="1">
          <mxGeometry width="50" height="50" relative="1" as="geometry">
            <mxPoint x="368.6600000000001" y="2422.0689655172414" as="sourcePoint" />
            <mxPoint x="368.6600000000001" y="1950" as="targetPoint" />
          </mxGeometry>
        </mxCell>
        <mxCell id="x7ms55XIc7-pgnnKO1B8-70" value="" style="endArrow=none;html=1;dashed=1;" parent="1" source="x7ms55XIc7-pgnnKO1B8-87" edge="1">
          <mxGeometry width="50" height="50" relative="1" as="geometry">
            <mxPoint x="505.65999999999985" y="2422.0689655172414" as="sourcePoint" />
            <mxPoint x="505.65999999999985" y="1950" as="targetPoint" />
          </mxGeometry>
        </mxCell>
        <mxCell id="x7ms55XIc7-pgnnKO1B8-71" value="" style="endArrow=none;html=1;dashed=1;" parent="1" source="ttu63wnwoUbBbuzjsD4v-59" edge="1">
          <mxGeometry width="50" height="50" relative="1" as="geometry">
            <mxPoint x="645.6599999999999" y="2422.0689655172414" as="sourcePoint" />
            <mxPoint x="645.6599999999999" y="1950" as="targetPoint" />
          </mxGeometry>
        </mxCell>
        <mxCell id="x7ms55XIc7-pgnnKO1B8-72" value="" style="endArrow=classic;html=1;" parent="1" edge="1">
          <mxGeometry width="50" height="50" relative="1" as="geometry">
            <mxPoint x="86" y="2027" as="sourcePoint" />
            <mxPoint x="216" y="2027" as="targetPoint" />
          </mxGeometry>
        </mxCell>
        <mxCell id="x7ms55XIc7-pgnnKO1B8-73" value="删除实例" style="shape=callout;whiteSpace=wrap;html=1;perimeter=calloutPerimeter;" parent="1" vertex="1">
          <mxGeometry x="56" y="1850" width="60" height="60" as="geometry" />
        </mxCell>
        <mxCell id="x7ms55XIc7-pgnnKO1B8-74" value="实例删除" style="text;html=1;resizable=0;autosize=1;align=center;verticalAlign=middle;points=[];fillColor=none;strokeColor=none;rounded=0;" parent="1" vertex="1">
          <mxGeometry x="121" y="2007" width="60" height="20" as="geometry" />
        </mxCell>
        <mxCell id="x7ms55XIc7-pgnnKO1B8-75" value="" style="endArrow=classic;html=1;" parent="1" edge="1">
          <mxGeometry width="50" height="50" relative="1" as="geometry">
            <mxPoint x="216" y="2057" as="sourcePoint" />
            <mxPoint x="366" y="2057" as="targetPoint" />
          </mxGeometry>
        </mxCell>
        <mxCell id="x7ms55XIc7-pgnnKO1B8-76" value="查询mdwIp地址" style="text;html=1;resizable=0;autosize=1;align=center;verticalAlign=middle;points=[];fillColor=none;strokeColor=none;rounded=0;" parent="1" vertex="1">
          <mxGeometry x="241" y="2032" width="100" height="20" as="geometry" />
        </mxCell>
        <mxCell id="x7ms55XIc7-pgnnKO1B8-79" value="" style="endArrow=classic;html=1;" parent="1" edge="1">
          <mxGeometry width="50" height="50" relative="1" as="geometry">
            <mxPoint x="216" y="2113.62" as="sourcePoint" />
            <mxPoint x="646" y="2114" as="targetPoint" />
          </mxGeometry>
        </mxCell>
        <mxCell id="x7ms55XIc7-pgnnKO1B8-80" value="等待status状态为&lt;br&gt;deleted" style="text;html=1;resizable=0;autosize=1;align=center;verticalAlign=middle;points=[];fillColor=none;strokeColor=none;rounded=0;" parent="1" vertex="1">
          <mxGeometry x="236" y="2200" width="110" height="30" as="geometry" />
        </mxCell>
        <mxCell id="x7ms55XIc7-pgnnKO1B8-81" value="" style="endArrow=classic;html=1;" parent="1" edge="1">
          <mxGeometry width="50" height="50" relative="1" as="geometry">
            <mxPoint x="216" y="2187.31" as="sourcePoint" />
            <mxPoint x="366" y="2187" as="targetPoint" />
          </mxGeometry>
        </mxCell>
        <mxCell id="x7ms55XIc7-pgnnKO1B8-82" value="" style="endArrow=classic;html=1;" parent="1" edge="1">
          <mxGeometry width="50" height="50" relative="1" as="geometry">
            <mxPoint x="366" y="2230" as="sourcePoint" />
            <mxPoint x="216" y="2230" as="targetPoint" />
          </mxGeometry>
        </mxCell>
        <mxCell id="x7ms55XIc7-pgnnKO1B8-83" value="" style="curved=1;endArrow=classic;html=1;" parent="1" edge="1">
          <mxGeometry width="50" height="50" relative="1" as="geometry">
            <mxPoint x="216" y="2190" as="sourcePoint" />
            <mxPoint x="216" y="2230" as="targetPoint" />
            <Array as="points">
              <mxPoint x="266" y="2200" />
            </Array>
          </mxGeometry>
        </mxCell>
        <mxCell id="x7ms55XIc7-pgnnKO1B8-84" value="" style="curved=1;endArrow=classic;html=1;" parent="1" edge="1">
          <mxGeometry width="50" height="50" relative="1" as="geometry">
            <mxPoint x="646" y="2140" as="sourcePoint" />
            <mxPoint x="646" y="2180" as="targetPoint" />
            <Array as="points">
              <mxPoint x="706" y="2160" />
            </Array>
          </mxGeometry>
        </mxCell>
        <mxCell id="x7ms55XIc7-pgnnKO1B8-85" value="" style="endArrow=classic;html=1;" parent="1" edge="1">
          <mxGeometry width="50" height="50" relative="1" as="geometry">
            <mxPoint x="646" y="2180" as="sourcePoint" />
            <mxPoint x="366" y="2180" as="targetPoint" />
          </mxGeometry>
        </mxCell>
        <mxCell id="x7ms55XIc7-pgnnKO1B8-86" value="处理" style="text;html=1;strokeColor=none;fillColor=none;align=center;verticalAlign=middle;whiteSpace=wrap;rounded=0;" parent="1" vertex="1">
          <mxGeometry x="686" y="2152" width="50" height="20" as="geometry" />
        </mxCell>
        <mxCell id="x7ms55XIc7-pgnnKO1B8-87" value="修改状态为deleted" style="text;html=1;resizable=0;autosize=1;align=center;verticalAlign=middle;points=[];fillColor=none;strokeColor=none;rounded=0;" parent="1" vertex="1">
          <mxGeometry x="451" y="2160" width="110" height="20" as="geometry" />
        </mxCell>
        <mxCell id="x7ms55XIc7-pgnnKO1B8-88" value="" style="endArrow=none;html=1;dashed=1;" parent="1" source="ttu63wnwoUbBbuzjsD4v-65" target="x7ms55XIc7-pgnnKO1B8-87" edge="1">
          <mxGeometry width="50" height="50" relative="1" as="geometry">
            <mxPoint x="505.65999999999985" y="2422.0689655172414" as="sourcePoint" />
            <mxPoint x="505.65999999999985" y="1950" as="targetPoint" />
          </mxGeometry>
        </mxCell>
        <mxCell id="x7ms55XIc7-pgnnKO1B8-89" value="通知agent删除" style="text;html=1;resizable=0;autosize=1;align=center;verticalAlign=middle;points=[];fillColor=none;strokeColor=none;rounded=0;" parent="1" vertex="1">
          <mxGeometry x="381" y="2089.31" width="90" height="20" as="geometry" />
        </mxCell>
        <mxCell id="x7ms55XIc7-pgnnKO1B8-90" value="" style="endArrow=classic;html=1;" parent="1" edge="1">
          <mxGeometry width="50" height="50" relative="1" as="geometry">
            <mxPoint x="218.5" y="2273" as="sourcePoint" />
            <mxPoint x="506" y="2273" as="targetPoint" />
            <Array as="points">
              <mxPoint x="288.5" y="2273" />
            </Array>
          </mxGeometry>
        </mxCell>
        <mxCell id="x7ms55XIc7-pgnnKO1B8-91" value="通知rm删除资源" style="text;html=1;resizable=0;autosize=1;align=center;verticalAlign=middle;points=[];fillColor=none;strokeColor=none;rounded=0;" parent="1" vertex="1">
          <mxGeometry x="319" y="2250" width="100" height="20" as="geometry" />
        </mxCell>
        <mxCell id="x7ms55XIc7-pgnnKO1B8-92" value="" style="endArrow=classic;html=1;" parent="1" edge="1">
          <mxGeometry width="50" height="50" relative="1" as="geometry">
            <mxPoint x="371" y="2084.31" as="sourcePoint" />
            <mxPoint x="216" y="2084" as="targetPoint" />
          </mxGeometry>
        </mxCell>
        <mxCell id="x7ms55XIc7-pgnnKO1B8-93" value="mdwIp地址" style="text;html=1;resizable=0;autosize=1;align=center;verticalAlign=middle;points=[];fillColor=none;strokeColor=none;rounded=0;" parent="1" vertex="1">
          <mxGeometry x="256" y="2064.31" width="70" height="20" as="geometry" />
        </mxCell>
        <mxCell id="x7ms55XIc7-pgnnKO1B8-94" value="修改状态为deleting" style="text;html=1;resizable=0;autosize=1;align=center;verticalAlign=middle;points=[];fillColor=none;strokeColor=none;rounded=0;" parent="1" vertex="1">
          <mxGeometry x="441" y="2120" width="120" height="20" as="geometry" />
        </mxCell>
        <mxCell id="x7ms55XIc7-pgnnKO1B8-95" value="" style="endArrow=classic;html=1;" parent="1" edge="1">
          <mxGeometry width="50" height="50" relative="1" as="geometry">
            <mxPoint x="646" y="2140" as="sourcePoint" />
            <mxPoint x="366" y="2140" as="targetPoint" />
          </mxGeometry>
        </mxCell>
        <mxCell id="x7ms55XIc7-pgnnKO1B8-96" value="" style="endArrow=classic;html=1;" parent="1" edge="1">
          <mxGeometry width="50" height="50" relative="1" as="geometry">
            <mxPoint x="506" y="2293" as="sourcePoint" />
            <mxPoint x="646" y="2293" as="targetPoint" />
            <Array as="points">
              <mxPoint x="576" y="2293" />
            </Array>
          </mxGeometry>
        </mxCell>
        <mxCell id="x7ms55XIc7-pgnnKO1B8-97" value="遍历所有主机删除资源" style="text;html=1;resizable=0;autosize=1;align=center;verticalAlign=middle;points=[];fillColor=none;strokeColor=none;rounded=0;" parent="1" vertex="1">
          <mxGeometry x="506" y="2270" width="140" height="20" as="geometry" />
        </mxCell>
        <mxCell id="x7ms55XIc7-pgnnKO1B8-98" value="" style="curved=1;endArrow=classic;html=1;" parent="1" edge="1">
          <mxGeometry width="50" height="50" relative="1" as="geometry">
            <mxPoint x="506" y="2300" as="sourcePoint" />
            <mxPoint x="506" y="2340" as="targetPoint" />
            <Array as="points">
              <mxPoint x="556" y="2310" />
            </Array>
          </mxGeometry>
        </mxCell>
        <mxCell id="x7ms55XIc7-pgnnKO1B8-99" value="资源删除完成" style="text;html=1;resizable=0;autosize=1;align=center;verticalAlign=middle;points=[];fillColor=none;strokeColor=none;rounded=0;" parent="1" vertex="1">
          <mxGeometry x="321" y="2330" width="90" height="20" as="geometry" />
        </mxCell>
        <mxCell id="x7ms55XIc7-pgnnKO1B8-100" value="" style="endArrow=classic;html=1;" parent="1" edge="1">
          <mxGeometry width="50" height="50" relative="1" as="geometry">
            <mxPoint x="506" y="2350" as="sourcePoint" />
            <mxPoint x="216" y="2350" as="targetPoint" />
          </mxGeometry>
        </mxCell>
        <mxCell id="x7ms55XIc7-pgnnKO1B8-101" value="" style="endArrow=classic;html=1;" parent="1" edge="1">
          <mxGeometry width="50" height="50" relative="1" as="geometry">
            <mxPoint x="216" y="2390.3099999999995" as="sourcePoint" />
            <mxPoint x="366" y="2390" as="targetPoint" />
          </mxGeometry>
        </mxCell>
        <mxCell id="x7ms55XIc7-pgnnKO1B8-102" value="删除实例信息" style="text;html=1;resizable=0;autosize=1;align=center;verticalAlign=middle;points=[];fillColor=none;strokeColor=none;rounded=0;" parent="1" vertex="1">
          <mxGeometry x="246" y="2370" width="90" height="20" as="geometry" />
        </mxCell>
        <mxCell id="x7ms55XIc7-pgnnKO1B8-103" value="" style="endArrow=classic;html=1;" parent="1" edge="1">
          <mxGeometry width="50" height="50" relative="1" as="geometry">
            <mxPoint x="216" y="2125" as="sourcePoint" />
            <mxPoint x="86" y="2125" as="targetPoint" />
          </mxGeometry>
        </mxCell>
        <mxCell id="x7ms55XIc7-pgnnKO1B8-104" value="返回成功" style="text;html=1;resizable=0;autosize=1;align=center;verticalAlign=middle;points=[];fillColor=none;strokeColor=none;rounded=0;" parent="1" vertex="1">
          <mxGeometry x="116" y="2095" width="60" height="20" as="geometry" />
        </mxCell>
        <mxCell id="x7ms55XIc7-pgnnKO1B8-105" value="UI" style="rounded=1;whiteSpace=wrap;html=1;" parent="1" vertex="1">
          <mxGeometry x="43" y="1100" width="80" height="30" as="geometry" />
        </mxCell>
        <mxCell id="x7ms55XIc7-pgnnKO1B8-106" value="backend" style="rounded=1;whiteSpace=wrap;html=1;" parent="1" vertex="1">
          <mxGeometry x="173" y="1100" width="80" height="30" as="geometry" />
        </mxCell>
        <mxCell id="x7ms55XIc7-pgnnKO1B8-107" value="rm" style="rounded=1;whiteSpace=wrap;html=1;" parent="1" vertex="1">
          <mxGeometry x="473" y="1100" width="60" height="30" as="geometry" />
        </mxCell>
        <mxCell id="x7ms55XIc7-pgnnKO1B8-108" value="主机" style="rounded=1;whiteSpace=wrap;html=1;" parent="1" vertex="1">
          <mxGeometry x="603" y="1100" width="80" height="30" as="geometry" />
        </mxCell>
        <mxCell id="x7ms55XIc7-pgnnKO1B8-109" value="consul" style="rounded=1;whiteSpace=wrap;html=1;" parent="1" vertex="1">
          <mxGeometry x="333" y="1100" width="66" height="30" as="geometry" />
        </mxCell>
        <mxCell id="x7ms55XIc7-pgnnKO1B8-110" value="" style="endArrow=none;html=1;dashed=1;" parent="1" source="ttu63wnwoUbBbuzjsD4v-33" edge="1">
          <mxGeometry width="50" height="50" relative="1" as="geometry">
            <mxPoint x="81" y="1390" as="sourcePoint" />
            <mxPoint x="83" y="1130" as="targetPoint" />
          </mxGeometry>
        </mxCell>
        <mxCell id="x7ms55XIc7-pgnnKO1B8-111" value="" style="endArrow=none;html=1;dashed=1;" parent="1" source="ttu63wnwoUbBbuzjsD4v-35" edge="1">
          <mxGeometry width="50" height="50" relative="1" as="geometry">
            <mxPoint x="213" y="1390" as="sourcePoint" />
            <mxPoint x="212.66000000000008" y="1130" as="targetPoint" />
          </mxGeometry>
        </mxCell>
        <mxCell id="x7ms55XIc7-pgnnKO1B8-112" value="" style="endArrow=none;html=1;dashed=1;" parent="1" source="ttu63wnwoUbBbuzjsD4v-39" edge="1">
          <mxGeometry width="50" height="50" relative="1" as="geometry">
            <mxPoint x="366" y="1390" as="sourcePoint" />
            <mxPoint x="365.6600000000001" y="1130" as="targetPoint" />
          </mxGeometry>
        </mxCell>
        <mxCell id="x7ms55XIc7-pgnnKO1B8-113" value="" style="endArrow=none;html=1;dashed=1;" parent="1" edge="1">
          <mxGeometry width="50" height="50" relative="1" as="geometry">
            <mxPoint x="503" y="1390" as="sourcePoint" />
            <mxPoint x="502.6600000000001" y="1130" as="targetPoint" />
          </mxGeometry>
        </mxCell>
        <mxCell id="x7ms55XIc7-pgnnKO1B8-114" value="" style="endArrow=none;html=1;dashed=1;" parent="1" source="ttu63wnwoUbBbuzjsD4v-41" edge="1">
          <mxGeometry width="50" height="50" relative="1" as="geometry">
            <mxPoint x="643" y="1390" as="sourcePoint" />
            <mxPoint x="642.6599999999999" y="1130" as="targetPoint" />
          </mxGeometry>
        </mxCell>
        <mxCell id="x7ms55XIc7-pgnnKO1B8-115" value="" style="endArrow=classic;html=1;" parent="1" edge="1">
          <mxGeometry width="50" height="50" relative="1" as="geometry">
            <mxPoint x="83" y="1180" as="sourcePoint" />
            <mxPoint x="213" y="1180" as="targetPoint" />
          </mxGeometry>
        </mxCell>
        <mxCell id="x7ms55XIc7-pgnnKO1B8-116" value="获取实例列表" style="shape=callout;whiteSpace=wrap;html=1;perimeter=calloutPerimeter;" parent="1" vertex="1">
          <mxGeometry x="53" y="1030" width="78" height="60" as="geometry" />
        </mxCell>
        <mxCell id="x7ms55XIc7-pgnnKO1B8-117" value="遍历实例集" style="text;html=1;resizable=0;autosize=1;align=center;verticalAlign=middle;points=[];fillColor=none;strokeColor=none;rounded=0;" parent="1" vertex="1">
          <mxGeometry x="225" y="1270" width="80" height="20" as="geometry" />
        </mxCell>
        <mxCell id="x7ms55XIc7-pgnnKO1B8-118" value="" style="endArrow=classic;html=1;" parent="1" edge="1">
          <mxGeometry width="50" height="50" relative="1" as="geometry">
            <mxPoint x="213" y="1195" as="sourcePoint" />
            <mxPoint x="371" y="1195" as="targetPoint" />
          </mxGeometry>
        </mxCell>
        <mxCell id="x7ms55XIc7-pgnnKO1B8-119" value="查询实例信息" style="text;html=1;resizable=0;autosize=1;align=center;verticalAlign=middle;points=[];fillColor=none;strokeColor=none;rounded=0;" parent="1" vertex="1">
          <mxGeometry x="243" y="1170" width="90" height="20" as="geometry" />
        </mxCell>
        <mxCell id="x7ms55XIc7-pgnnKO1B8-120" value="" style="endArrow=classic;html=1;" parent="1" edge="1">
          <mxGeometry width="50" height="50" relative="1" as="geometry">
            <mxPoint x="211" y="1260" as="sourcePoint" />
            <mxPoint x="643" y="1260" as="targetPoint" />
          </mxGeometry>
        </mxCell>
        <mxCell id="x7ms55XIc7-pgnnKO1B8-121" value="获取已使用空间与计算资源" style="text;html=1;resizable=0;autosize=1;align=center;verticalAlign=middle;points=[];fillColor=none;strokeColor=none;rounded=0;" parent="1" vertex="1">
          <mxGeometry x="325" y="1240" width="160" height="20" as="geometry" />
        </mxCell>
        <mxCell id="x7ms55XIc7-pgnnKO1B8-122" value="" style="endArrow=classic;html=1;" parent="1" edge="1">
          <mxGeometry width="50" height="50" relative="1" as="geometry">
            <mxPoint x="361" y="1230" as="sourcePoint" />
            <mxPoint x="213" y="1230" as="targetPoint" />
          </mxGeometry>
        </mxCell>
        <mxCell id="x7ms55XIc7-pgnnKO1B8-123" value="返回实例集" style="text;html=1;resizable=0;autosize=1;align=center;verticalAlign=middle;points=[];fillColor=none;strokeColor=none;rounded=0;" parent="1" vertex="1">
          <mxGeometry x="250" y="1210" width="80" height="20" as="geometry" />
        </mxCell>
        <mxCell id="x7ms55XIc7-pgnnKO1B8-124" value="" style="endArrow=classic;html=1;" parent="1" edge="1">
          <mxGeometry width="50" height="50" relative="1" as="geometry">
            <mxPoint x="213" y="1330" as="sourcePoint" />
            <mxPoint x="83" y="1330" as="targetPoint" />
          </mxGeometry>
        </mxCell>
        <mxCell id="x7ms55XIc7-pgnnKO1B8-125" value="返回前端" style="text;html=1;resizable=0;autosize=1;align=center;verticalAlign=middle;points=[];fillColor=none;strokeColor=none;rounded=0;" parent="1" vertex="1">
          <mxGeometry x="118" y="1310" width="60" height="20" as="geometry" />
        </mxCell>
        <mxCell id="x7ms55XIc7-pgnnKO1B8-126" value="" style="endArrow=classic;html=1;" parent="1" edge="1">
          <mxGeometry width="50" height="50" relative="1" as="geometry">
            <mxPoint x="641" y="1310" as="sourcePoint" />
            <mxPoint x="211" y="1310" as="targetPoint" />
          </mxGeometry>
        </mxCell>
        <mxCell id="x7ms55XIc7-pgnnKO1B8-127" value="" style="curved=1;endArrow=classic;html=1;" parent="1" edge="1">
          <mxGeometry width="50" height="50" relative="1" as="geometry">
            <mxPoint x="215" y="1260" as="sourcePoint" />
            <mxPoint x="215" y="1310" as="targetPoint" />
            <Array as="points">
              <mxPoint x="241" y="1280" />
            </Array>
          </mxGeometry>
        </mxCell>
        <mxCell id="x7ms55XIc7-pgnnKO1B8-128" value="UI" style="rounded=1;whiteSpace=wrap;html=1;" parent="1" vertex="1">
          <mxGeometry x="46" y="1490" width="80" height="30" as="geometry" />
        </mxCell>
        <mxCell id="x7ms55XIc7-pgnnKO1B8-129" value="backend" style="rounded=1;whiteSpace=wrap;html=1;" parent="1" vertex="1">
          <mxGeometry x="176" y="1490" width="80" height="30" as="geometry" />
        </mxCell>
        <mxCell id="x7ms55XIc7-pgnnKO1B8-130" value="rm" style="rounded=1;whiteSpace=wrap;html=1;" parent="1" vertex="1">
          <mxGeometry x="476" y="1490" width="60" height="30" as="geometry" />
        </mxCell>
        <mxCell id="x7ms55XIc7-pgnnKO1B8-131" value="主机" style="rounded=1;whiteSpace=wrap;html=1;" parent="1" vertex="1">
          <mxGeometry x="606" y="1490" width="80" height="30" as="geometry" />
        </mxCell>
        <mxCell id="x7ms55XIc7-pgnnKO1B8-132" value="consul" style="rounded=1;whiteSpace=wrap;html=1;" parent="1" vertex="1">
          <mxGeometry x="336" y="1490" width="66" height="30" as="geometry" />
        </mxCell>
        <mxCell id="x7ms55XIc7-pgnnKO1B8-133" value="" style="endArrow=none;html=1;dashed=1;" parent="1" source="ttu63wnwoUbBbuzjsD4v-43" edge="1">
          <mxGeometry width="50" height="50" relative="1" as="geometry">
            <mxPoint x="84" y="1780" as="sourcePoint" />
            <mxPoint x="86" y="1520" as="targetPoint" />
          </mxGeometry>
        </mxCell>
        <mxCell id="x7ms55XIc7-pgnnKO1B8-134" value="" style="endArrow=none;html=1;dashed=1;" parent="1" source="ttu63wnwoUbBbuzjsD4v-45" edge="1">
          <mxGeometry width="50" height="50" relative="1" as="geometry">
            <mxPoint x="216" y="1780" as="sourcePoint" />
            <mxPoint x="215.66000000000008" y="1520" as="targetPoint" />
          </mxGeometry>
        </mxCell>
        <mxCell id="x7ms55XIc7-pgnnKO1B8-136" value="" style="endArrow=none;html=1;dashed=1;" parent="1" edge="1">
          <mxGeometry width="50" height="50" relative="1" as="geometry">
            <mxPoint x="506" y="1780" as="sourcePoint" />
            <mxPoint x="505.6600000000001" y="1520" as="targetPoint" />
          </mxGeometry>
        </mxCell>
        <mxCell id="x7ms55XIc7-pgnnKO1B8-137" value="" style="endArrow=none;html=1;dashed=1;" parent="1" source="ttu63wnwoUbBbuzjsD4v-51" edge="1">
          <mxGeometry width="50" height="50" relative="1" as="geometry">
            <mxPoint x="646" y="1780" as="sourcePoint" />
            <mxPoint x="645.6599999999996" y="1520" as="targetPoint" />
          </mxGeometry>
        </mxCell>
        <mxCell id="x7ms55XIc7-pgnnKO1B8-138" value="" style="endArrow=classic;html=1;" parent="1" edge="1">
          <mxGeometry width="50" height="50" relative="1" as="geometry">
            <mxPoint x="86" y="1570" as="sourcePoint" />
            <mxPoint x="216" y="1570" as="targetPoint" />
          </mxGeometry>
        </mxCell>
        <mxCell id="x7ms55XIc7-pgnnKO1B8-139" value="获取实例详情" style="shape=callout;whiteSpace=wrap;html=1;perimeter=calloutPerimeter;" parent="1" vertex="1">
          <mxGeometry x="56" y="1420" width="78" height="60" as="geometry" />
        </mxCell>
        <mxCell id="x7ms55XIc7-pgnnKO1B8-140" value="" style="endArrow=classic;html=1;" parent="1" edge="1">
          <mxGeometry width="50" height="50" relative="1" as="geometry">
            <mxPoint x="216" y="1585" as="sourcePoint" />
            <mxPoint x="374" y="1585" as="targetPoint" />
          </mxGeometry>
        </mxCell>
        <mxCell id="x7ms55XIc7-pgnnKO1B8-141" value="查询实例信息" style="text;html=1;resizable=0;autosize=1;align=center;verticalAlign=middle;points=[];fillColor=none;strokeColor=none;rounded=0;" parent="1" vertex="1">
          <mxGeometry x="246" y="1560" width="90" height="20" as="geometry" />
        </mxCell>
        <mxCell id="x7ms55XIc7-pgnnKO1B8-142" value="" style="endArrow=classic;html=1;" parent="1" edge="1">
          <mxGeometry width="50" height="50" relative="1" as="geometry">
            <mxPoint x="214" y="1650" as="sourcePoint" />
            <mxPoint x="646" y="1650" as="targetPoint" />
          </mxGeometry>
        </mxCell>
        <mxCell id="x7ms55XIc7-pgnnKO1B8-143" value="获取已使用空间与计算资源" style="text;html=1;resizable=0;autosize=1;align=center;verticalAlign=middle;points=[];fillColor=none;strokeColor=none;rounded=0;" parent="1" vertex="1">
          <mxGeometry x="328" y="1630" width="160" height="20" as="geometry" />
        </mxCell>
        <mxCell id="x7ms55XIc7-pgnnKO1B8-144" value="" style="endArrow=classic;html=1;" parent="1" edge="1">
          <mxGeometry width="50" height="50" relative="1" as="geometry">
            <mxPoint x="364" y="1620" as="sourcePoint" />
            <mxPoint x="216" y="1620" as="targetPoint" />
          </mxGeometry>
        </mxCell>
        <mxCell id="x7ms55XIc7-pgnnKO1B8-145" value="返回实例信息" style="text;html=1;resizable=0;autosize=1;align=center;verticalAlign=middle;points=[];fillColor=none;strokeColor=none;rounded=0;" parent="1" vertex="1">
          <mxGeometry x="248" y="1600" width="90" height="20" as="geometry" />
        </mxCell>
        <mxCell id="x7ms55XIc7-pgnnKO1B8-146" value="" style="endArrow=classic;html=1;" parent="1" edge="1">
          <mxGeometry width="50" height="50" relative="1" as="geometry">
            <mxPoint x="216" y="1720" as="sourcePoint" />
            <mxPoint x="86" y="1720" as="targetPoint" />
          </mxGeometry>
        </mxCell>
        <mxCell id="x7ms55XIc7-pgnnKO1B8-147" value="返回前端" style="text;html=1;resizable=0;autosize=1;align=center;verticalAlign=middle;points=[];fillColor=none;strokeColor=none;rounded=0;" parent="1" vertex="1">
          <mxGeometry x="121" y="1700" width="60" height="20" as="geometry" />
        </mxCell>
        <mxCell id="x7ms55XIc7-pgnnKO1B8-148" value="" style="endArrow=classic;html=1;" parent="1" edge="1">
          <mxGeometry width="50" height="50" relative="1" as="geometry">
            <mxPoint x="643" y="1680" as="sourcePoint" />
            <mxPoint x="213" y="1680" as="targetPoint" />
          </mxGeometry>
        </mxCell>
        <mxCell id="x7ms55XIc7-pgnnKO1B8-149" value="UI" style="rounded=1;whiteSpace=wrap;html=1;" parent="1" vertex="1">
          <mxGeometry x="40" y="2560" width="80" height="30" as="geometry" />
        </mxCell>
        <mxCell id="x7ms55XIc7-pgnnKO1B8-150" value="backend" style="rounded=1;whiteSpace=wrap;html=1;" parent="1" vertex="1">
          <mxGeometry x="170" y="2560" width="80" height="30" as="geometry" />
        </mxCell>
        <mxCell id="x7ms55XIc7-pgnnKO1B8-151" value="rm" style="rounded=1;whiteSpace=wrap;html=1;" parent="1" vertex="1">
          <mxGeometry x="470" y="2560" width="60" height="30" as="geometry" />
        </mxCell>
        <mxCell id="x7ms55XIc7-pgnnKO1B8-152" value="主机" style="rounded=1;whiteSpace=wrap;html=1;" parent="1" vertex="1">
          <mxGeometry x="600" y="2560" width="80" height="30" as="geometry" />
        </mxCell>
        <mxCell id="x7ms55XIc7-pgnnKO1B8-153" value="consul" style="rounded=1;whiteSpace=wrap;html=1;" parent="1" vertex="1">
          <mxGeometry x="330" y="2560" width="66" height="30" as="geometry" />
        </mxCell>
        <mxCell id="x7ms55XIc7-pgnnKO1B8-154" value="" style="endArrow=none;html=1;dashed=1;" parent="1" source="ttu63wnwoUbBbuzjsD4v-69" edge="1">
          <mxGeometry width="50" height="50" relative="1" as="geometry">
            <mxPoint x="80" y="2830" as="sourcePoint" />
            <mxPoint x="80" y="2590" as="targetPoint" />
          </mxGeometry>
        </mxCell>
        <mxCell id="x7ms55XIc7-pgnnKO1B8-155" value="" style="endArrow=none;html=1;dashed=1;" parent="1" source="ttu63wnwoUbBbuzjsD4v-71" edge="1">
          <mxGeometry width="50" height="50" relative="1" as="geometry">
            <mxPoint x="210" y="2830" as="sourcePoint" />
            <mxPoint x="209.66000000000008" y="2590" as="targetPoint" />
          </mxGeometry>
        </mxCell>
        <mxCell id="x7ms55XIc7-pgnnKO1B8-156" value="" style="endArrow=none;html=1;dashed=1;" parent="1" source="ttu63wnwoUbBbuzjsD4v-73" edge="1">
          <mxGeometry width="50" height="50" relative="1" as="geometry">
            <mxPoint x="363" y="2830" as="sourcePoint" />
            <mxPoint x="362.6600000000001" y="2590" as="targetPoint" />
          </mxGeometry>
        </mxCell>
        <mxCell id="x7ms55XIc7-pgnnKO1B8-157" value="" style="endArrow=none;html=1;dashed=1;" parent="1" edge="1">
          <mxGeometry width="50" height="50" relative="1" as="geometry">
            <mxPoint x="500" y="2830" as="sourcePoint" />
            <mxPoint x="499.65999999999985" y="2590" as="targetPoint" />
          </mxGeometry>
        </mxCell>
        <mxCell id="x7ms55XIc7-pgnnKO1B8-158" value="" style="endArrow=none;html=1;dashed=1;" parent="1" source="ttu63wnwoUbBbuzjsD4v-75" edge="1">
          <mxGeometry width="50" height="50" relative="1" as="geometry">
            <mxPoint x="640" y="2830" as="sourcePoint" />
            <mxPoint x="639.6599999999999" y="2590" as="targetPoint" />
          </mxGeometry>
        </mxCell>
        <mxCell id="x7ms55XIc7-pgnnKO1B8-159" value="" style="endArrow=classic;html=1;" parent="1" edge="1">
          <mxGeometry width="50" height="50" relative="1" as="geometry">
            <mxPoint x="80" y="2667" as="sourcePoint" />
            <mxPoint x="210" y="2667" as="targetPoint" />
          </mxGeometry>
        </mxCell>
        <mxCell id="x7ms55XIc7-pgnnKO1B8-160" value="实例操作" style="shape=callout;whiteSpace=wrap;html=1;perimeter=calloutPerimeter;" parent="1" vertex="1">
          <mxGeometry x="50" y="2490" width="60" height="60" as="geometry" />
        </mxCell>
        <mxCell id="x7ms55XIc7-pgnnKO1B8-161" value="发送操作请求" style="text;html=1;resizable=0;autosize=1;align=center;verticalAlign=middle;points=[];fillColor=none;strokeColor=none;rounded=0;" parent="1" vertex="1">
          <mxGeometry x="100" y="2647" width="90" height="20" as="geometry" />
        </mxCell>
        <mxCell id="x7ms55XIc7-pgnnKO1B8-162" value="" style="endArrow=classic;html=1;" parent="1" edge="1">
          <mxGeometry width="50" height="50" relative="1" as="geometry">
            <mxPoint x="210" y="2697" as="sourcePoint" />
            <mxPoint x="360" y="2697" as="targetPoint" />
          </mxGeometry>
        </mxCell>
        <mxCell id="x7ms55XIc7-pgnnKO1B8-163" value="查询mdwIp地址" style="text;html=1;resizable=0;autosize=1;align=center;verticalAlign=middle;points=[];fillColor=none;strokeColor=none;rounded=0;" parent="1" vertex="1">
          <mxGeometry x="235" y="2672" width="100" height="20" as="geometry" />
        </mxCell>
        <mxCell id="x7ms55XIc7-pgnnKO1B8-166" value="" style="endArrow=classic;html=1;" parent="1" edge="1">
          <mxGeometry width="50" height="50" relative="1" as="geometry">
            <mxPoint x="210" y="2753.62" as="sourcePoint" />
            <mxPoint x="640" y="2754" as="targetPoint" />
          </mxGeometry>
        </mxCell>
        <mxCell id="x7ms55XIc7-pgnnKO1B8-167" value="通知agent启动，停止，重启" style="text;html=1;resizable=0;autosize=1;align=center;verticalAlign=middle;points=[];fillColor=none;strokeColor=none;rounded=0;" parent="1" vertex="1">
          <mxGeometry x="335" y="2729.31" width="170" height="20" as="geometry" />
        </mxCell>
        <mxCell id="x7ms55XIc7-pgnnKO1B8-168" value="" style="endArrow=classic;html=1;" parent="1" edge="1">
          <mxGeometry width="50" height="50" relative="1" as="geometry">
            <mxPoint x="365" y="2724.31" as="sourcePoint" />
            <mxPoint x="210" y="2724" as="targetPoint" />
          </mxGeometry>
        </mxCell>
        <mxCell id="x7ms55XIc7-pgnnKO1B8-169" value="mdwIp地址" style="text;html=1;resizable=0;autosize=1;align=center;verticalAlign=middle;points=[];fillColor=none;strokeColor=none;rounded=0;" parent="1" vertex="1">
          <mxGeometry x="250" y="2704.31" width="70" height="20" as="geometry" />
        </mxCell>
        <mxCell id="x7ms55XIc7-pgnnKO1B8-170" value="" style="endArrow=classic;html=1;" parent="1" edge="1">
          <mxGeometry width="50" height="50" relative="1" as="geometry">
            <mxPoint x="210" y="2765" as="sourcePoint" />
            <mxPoint x="80" y="2765" as="targetPoint" />
          </mxGeometry>
        </mxCell>
        <mxCell id="x7ms55XIc7-pgnnKO1B8-171" value="返回成功" style="text;html=1;resizable=0;autosize=1;align=center;verticalAlign=middle;points=[];fillColor=none;strokeColor=none;rounded=0;" parent="1" vertex="1">
          <mxGeometry x="110" y="2735" width="60" height="20" as="geometry" />
        </mxCell>
        <mxCell id="x7ms55XIc7-pgnnKO1B8-172" value="" style="curved=1;endArrow=classic;html=1;" parent="1" edge="1">
          <mxGeometry width="50" height="50" relative="1" as="geometry">
            <mxPoint x="640" y="2770" as="sourcePoint" />
            <mxPoint x="640" y="2800" as="targetPoint" />
            <Array as="points">
              <mxPoint x="700" y="2780" />
            </Array>
          </mxGeometry>
        </mxCell>
        <mxCell id="x7ms55XIc7-pgnnKO1B8-173" value="操作" style="text;html=1;strokeColor=none;fillColor=none;align=center;verticalAlign=middle;whiteSpace=wrap;rounded=0;" parent="1" vertex="1">
          <mxGeometry x="680" y="2773" width="50" height="20" as="geometry" />
        </mxCell>
        <mxCell id="x7ms55XIc7-pgnnKO1B8-174" value="" style="endArrow=classic;html=1;" parent="1" edge="1">
          <mxGeometry width="50" height="50" relative="1" as="geometry">
            <mxPoint x="641" y="2810" as="sourcePoint" />
            <mxPoint x="361" y="2810" as="targetPoint" />
          </mxGeometry>
        </mxCell>
        <mxCell id="x7ms55XIc7-pgnnKO1B8-175" value="修改状态" style="text;html=1;resizable=0;autosize=1;align=center;verticalAlign=middle;points=[];fillColor=none;strokeColor=none;rounded=0;" parent="1" vertex="1">
          <mxGeometry x="466" y="2783" width="60" height="20" as="geometry" />
        </mxCell>
        <mxCell id="x7ms55XIc7-pgnnKO1B8-176" value="UI" style="rounded=1;whiteSpace=wrap;html=1;" parent="1" vertex="1">
          <mxGeometry x="46" y="3366" width="80" height="30" as="geometry" />
        </mxCell>
        <mxCell id="x7ms55XIc7-pgnnKO1B8-177" value="backend" style="rounded=1;whiteSpace=wrap;html=1;" parent="1" vertex="1">
          <mxGeometry x="176" y="3366" width="80" height="30" as="geometry" />
        </mxCell>
        <mxCell id="x7ms55XIc7-pgnnKO1B8-178" value="rm" style="rounded=1;whiteSpace=wrap;html=1;" parent="1" vertex="1">
          <mxGeometry x="476" y="3366" width="60" height="30" as="geometry" />
        </mxCell>
        <mxCell id="x7ms55XIc7-pgnnKO1B8-179" value="主机" style="rounded=1;whiteSpace=wrap;html=1;" parent="1" vertex="1">
          <mxGeometry x="606" y="3366" width="80" height="30" as="geometry" />
        </mxCell>
        <mxCell id="x7ms55XIc7-pgnnKO1B8-180" value="consul" style="rounded=1;whiteSpace=wrap;html=1;" parent="1" vertex="1">
          <mxGeometry x="336" y="3366" width="66" height="30" as="geometry" />
        </mxCell>
        <mxCell id="x7ms55XIc7-pgnnKO1B8-181" value="" style="endArrow=none;html=1;dashed=1;" parent="1" source="ttu63wnwoUbBbuzjsD4v-82" edge="1">
          <mxGeometry width="50" height="50" relative="1" as="geometry">
            <mxPoint x="86" y="3636" as="sourcePoint" />
            <mxPoint x="86" y="3396" as="targetPoint" />
          </mxGeometry>
        </mxCell>
        <mxCell id="x7ms55XIc7-pgnnKO1B8-182" value="" style="endArrow=none;html=1;dashed=1;" parent="1" source="ttu63wnwoUbBbuzjsD4v-84" edge="1">
          <mxGeometry width="50" height="50" relative="1" as="geometry">
            <mxPoint x="216" y="3636" as="sourcePoint" />
            <mxPoint x="215.66000000000008" y="3396" as="targetPoint" />
          </mxGeometry>
        </mxCell>
        <mxCell id="x7ms55XIc7-pgnnKO1B8-183" value="" style="endArrow=none;html=1;dashed=1;" parent="1" edge="1">
          <mxGeometry width="50" height="50" relative="1" as="geometry">
            <mxPoint x="369" y="3636" as="sourcePoint" />
            <mxPoint x="368.6600000000001" y="3396" as="targetPoint" />
          </mxGeometry>
        </mxCell>
        <mxCell id="x7ms55XIc7-pgnnKO1B8-184" value="" style="endArrow=none;html=1;dashed=1;" parent="1" edge="1">
          <mxGeometry width="50" height="50" relative="1" as="geometry">
            <mxPoint x="506" y="3636" as="sourcePoint" />
            <mxPoint x="505.65999999999985" y="3396" as="targetPoint" />
          </mxGeometry>
        </mxCell>
        <mxCell id="x7ms55XIc7-pgnnKO1B8-185" value="" style="endArrow=none;html=1;dashed=1;" parent="1" source="ttu63wnwoUbBbuzjsD4v-86" edge="1">
          <mxGeometry width="50" height="50" relative="1" as="geometry">
            <mxPoint x="645.9999999999998" y="3636" as="sourcePoint" />
            <mxPoint x="645.6599999999999" y="3396" as="targetPoint" />
          </mxGeometry>
        </mxCell>
        <mxCell id="x7ms55XIc7-pgnnKO1B8-186" value="" style="endArrow=classic;html=1;" parent="1" edge="1">
          <mxGeometry width="50" height="50" relative="1" as="geometry">
            <mxPoint x="86" y="3473" as="sourcePoint" />
            <mxPoint x="216" y="3473" as="targetPoint" />
          </mxGeometry>
        </mxCell>
        <mxCell id="x7ms55XIc7-pgnnKO1B8-187" value="获取数据库列表" style="shape=callout;whiteSpace=wrap;html=1;perimeter=calloutPerimeter;" parent="1" vertex="1">
          <mxGeometry x="56" y="3296" width="60" height="60" as="geometry" />
        </mxCell>
        <mxCell id="x7ms55XIc7-pgnnKO1B8-188" value="查询数据库列表" style="text;html=1;resizable=0;autosize=1;align=center;verticalAlign=middle;points=[];fillColor=none;strokeColor=none;rounded=0;" parent="1" vertex="1">
          <mxGeometry x="101" y="3453" width="100" height="20" as="geometry" />
        </mxCell>
        <mxCell id="x7ms55XIc7-pgnnKO1B8-189" value="" style="endArrow=classic;html=1;" parent="1" edge="1">
          <mxGeometry width="50" height="50" relative="1" as="geometry">
            <mxPoint x="216" y="3503" as="sourcePoint" />
            <mxPoint x="366" y="3503" as="targetPoint" />
          </mxGeometry>
        </mxCell>
        <mxCell id="x7ms55XIc7-pgnnKO1B8-190" value="查询mdwIp地址" style="text;html=1;resizable=0;autosize=1;align=center;verticalAlign=middle;points=[];fillColor=none;strokeColor=none;rounded=0;" parent="1" vertex="1">
          <mxGeometry x="241" y="3478" width="100" height="20" as="geometry" />
        </mxCell>
        <mxCell id="x7ms55XIc7-pgnnKO1B8-193" value="" style="endArrow=classic;html=1;" parent="1" edge="1">
          <mxGeometry width="50" height="50" relative="1" as="geometry">
            <mxPoint x="216" y="3559.6200000000003" as="sourcePoint" />
            <mxPoint x="645.9999999999998" y="3560.0000000000005" as="targetPoint" />
          </mxGeometry>
        </mxCell>
        <mxCell id="x7ms55XIc7-pgnnKO1B8-194" value="获取数据库" style="text;html=1;resizable=0;autosize=1;align=center;verticalAlign=middle;points=[];fillColor=none;strokeColor=none;rounded=0;" parent="1" vertex="1">
          <mxGeometry x="386" y="3535.31" width="80" height="20" as="geometry" />
        </mxCell>
        <mxCell id="x7ms55XIc7-pgnnKO1B8-195" value="" style="endArrow=classic;html=1;" parent="1" edge="1">
          <mxGeometry width="50" height="50" relative="1" as="geometry">
            <mxPoint x="371" y="3530.31" as="sourcePoint" />
            <mxPoint x="216" y="3530.0000000000005" as="targetPoint" />
          </mxGeometry>
        </mxCell>
        <mxCell id="x7ms55XIc7-pgnnKO1B8-196" value="mdwIp地址" style="text;html=1;resizable=0;autosize=1;align=center;verticalAlign=middle;points=[];fillColor=none;strokeColor=none;rounded=0;" parent="1" vertex="1">
          <mxGeometry x="256" y="3510.31" width="70" height="20" as="geometry" />
        </mxCell>
        <mxCell id="x7ms55XIc7-pgnnKO1B8-197" value="" style="endArrow=classic;html=1;" parent="1" edge="1">
          <mxGeometry width="50" height="50" relative="1" as="geometry">
            <mxPoint x="216" y="3616" as="sourcePoint" />
            <mxPoint x="86" y="3616" as="targetPoint" />
          </mxGeometry>
        </mxCell>
        <mxCell id="x7ms55XIc7-pgnnKO1B8-198" value="返回成功" style="text;html=1;resizable=0;autosize=1;align=center;verticalAlign=middle;points=[];fillColor=none;strokeColor=none;rounded=0;" parent="1" vertex="1">
          <mxGeometry x="119" y="3596" width="60" height="20" as="geometry" />
        </mxCell>
        <mxCell id="x7ms55XIc7-pgnnKO1B8-199" value="" style="curved=1;endArrow=classic;html=1;" parent="1" edge="1">
          <mxGeometry width="50" height="50" relative="1" as="geometry">
            <mxPoint x="642.9999999999998" y="3561" as="sourcePoint" />
            <mxPoint x="642.9999999999998" y="3591" as="targetPoint" />
            <Array as="points">
              <mxPoint x="703" y="3571" />
            </Array>
          </mxGeometry>
        </mxCell>
        <mxCell id="x7ms55XIc7-pgnnKO1B8-200" value="操作" style="text;html=1;strokeColor=none;fillColor=none;align=center;verticalAlign=middle;whiteSpace=wrap;rounded=0;" parent="1" vertex="1">
          <mxGeometry x="674" y="3561" width="50" height="20" as="geometry" />
        </mxCell>
        <mxCell id="x7ms55XIc7-pgnnKO1B8-201" value="" style="endArrow=classic;html=1;" parent="1" edge="1">
          <mxGeometry width="50" height="50" relative="1" as="geometry">
            <mxPoint x="646" y="3598.58" as="sourcePoint" />
            <mxPoint x="214" y="3599" as="targetPoint" />
          </mxGeometry>
        </mxCell>
        <mxCell id="x7ms55XIc7-pgnnKO1B8-202" value="数据库信息" style="text;html=1;resizable=0;autosize=1;align=center;verticalAlign=middle;points=[];fillColor=none;strokeColor=none;rounded=0;" parent="1" vertex="1">
          <mxGeometry x="394" y="3576" width="72" height="20" as="geometry" />
        </mxCell>
        <mxCell id="x7ms55XIc7-pgnnKO1B8-203" value="UI" style="rounded=1;whiteSpace=wrap;html=1;" parent="1" vertex="1">
          <mxGeometry x="43" y="2986" width="80" height="30" as="geometry" />
        </mxCell>
        <mxCell id="x7ms55XIc7-pgnnKO1B8-204" value="backend" style="rounded=1;whiteSpace=wrap;html=1;" parent="1" vertex="1">
          <mxGeometry x="173" y="2986" width="80" height="30" as="geometry" />
        </mxCell>
        <mxCell id="x7ms55XIc7-pgnnKO1B8-205" value="consul" style="rounded=1;whiteSpace=wrap;html=1;" parent="1" vertex="1">
          <mxGeometry x="333" y="2986" width="66" height="30" as="geometry" />
        </mxCell>
        <mxCell id="x7ms55XIc7-pgnnKO1B8-206" value="" style="endArrow=none;html=1;dashed=1;" parent="1" source="ttu63wnwoUbBbuzjsD4v-77" edge="1">
          <mxGeometry width="50" height="50" relative="1" as="geometry">
            <mxPoint x="83" y="3256" as="sourcePoint" />
            <mxPoint x="83" y="3016" as="targetPoint" />
          </mxGeometry>
        </mxCell>
        <mxCell id="x7ms55XIc7-pgnnKO1B8-207" value="" style="endArrow=none;html=1;dashed=1;" parent="1" source="ttu63wnwoUbBbuzjsD4v-79" edge="1">
          <mxGeometry width="50" height="50" relative="1" as="geometry">
            <mxPoint x="213" y="3256" as="sourcePoint" />
            <mxPoint x="212.66000000000008" y="3016" as="targetPoint" />
          </mxGeometry>
        </mxCell>
        <mxCell id="x7ms55XIc7-pgnnKO1B8-208" value="" style="endArrow=none;html=1;dashed=1;" parent="1" edge="1">
          <mxGeometry width="50" height="50" relative="1" as="geometry">
            <mxPoint x="366" y="3256" as="sourcePoint" />
            <mxPoint x="365.6600000000001" y="3016" as="targetPoint" />
          </mxGeometry>
        </mxCell>
        <mxCell id="x7ms55XIc7-pgnnKO1B8-209" value="" style="endArrow=classic;html=1;" parent="1" edge="1">
          <mxGeometry width="50" height="50" relative="1" as="geometry">
            <mxPoint x="83" y="3093" as="sourcePoint" />
            <mxPoint x="213" y="3093" as="targetPoint" />
          </mxGeometry>
        </mxCell>
        <mxCell id="x7ms55XIc7-pgnnKO1B8-210" value="修改实例" style="shape=callout;whiteSpace=wrap;html=1;perimeter=calloutPerimeter;" parent="1" vertex="1">
          <mxGeometry x="53" y="2916" width="60" height="60" as="geometry" />
        </mxCell>
        <mxCell id="x7ms55XIc7-pgnnKO1B8-211" value="修改实例" style="text;html=1;resizable=0;autosize=1;align=center;verticalAlign=middle;points=[];fillColor=none;strokeColor=none;rounded=0;" parent="1" vertex="1">
          <mxGeometry x="118" y="3073" width="60" height="20" as="geometry" />
        </mxCell>
        <mxCell id="x7ms55XIc7-pgnnKO1B8-212" value="" style="endArrow=classic;html=1;" parent="1" edge="1">
          <mxGeometry width="50" height="50" relative="1" as="geometry">
            <mxPoint x="213" y="3123" as="sourcePoint" />
            <mxPoint x="367" y="3123" as="targetPoint" />
          </mxGeometry>
        </mxCell>
        <mxCell id="x7ms55XIc7-pgnnKO1B8-213" value="查询实例" style="text;html=1;resizable=0;autosize=1;align=center;verticalAlign=middle;points=[];fillColor=none;strokeColor=none;rounded=0;" parent="1" vertex="1">
          <mxGeometry x="258" y="3098" width="60" height="20" as="geometry" />
        </mxCell>
        <mxCell id="x7ms55XIc7-pgnnKO1B8-216" value="" style="endArrow=classic;html=1;" parent="1" edge="1">
          <mxGeometry width="50" height="50" relative="1" as="geometry">
            <mxPoint x="213" y="3179.6200000000003" as="sourcePoint" />
            <mxPoint x="365" y="3180" as="targetPoint" />
          </mxGeometry>
        </mxCell>
        <mxCell id="x7ms55XIc7-pgnnKO1B8-217" value="" style="endArrow=classic;html=1;" parent="1" edge="1">
          <mxGeometry width="50" height="50" relative="1" as="geometry">
            <mxPoint x="365" y="3150" as="sourcePoint" />
            <mxPoint x="213" y="3150.0000000000005" as="targetPoint" />
          </mxGeometry>
        </mxCell>
        <mxCell id="x7ms55XIc7-pgnnKO1B8-218" value="实例存在" style="text;html=1;resizable=0;autosize=1;align=center;verticalAlign=middle;points=[];fillColor=none;strokeColor=none;rounded=0;" parent="1" vertex="1">
          <mxGeometry x="258" y="3130.31" width="60" height="20" as="geometry" />
        </mxCell>
        <mxCell id="x7ms55XIc7-pgnnKO1B8-219" value="" style="endArrow=classic;html=1;" parent="1" edge="1">
          <mxGeometry width="50" height="50" relative="1" as="geometry">
            <mxPoint x="213" y="3191" as="sourcePoint" />
            <mxPoint x="83" y="3191" as="targetPoint" />
          </mxGeometry>
        </mxCell>
        <mxCell id="x7ms55XIc7-pgnnKO1B8-220" value="返回成功" style="text;html=1;resizable=0;autosize=1;align=center;verticalAlign=middle;points=[];fillColor=none;strokeColor=none;rounded=0;" parent="1" vertex="1">
          <mxGeometry x="113" y="3161" width="60" height="20" as="geometry" />
        </mxCell>
        <mxCell id="x7ms55XIc7-pgnnKO1B8-221" value="修改名字" style="text;html=1;resizable=0;autosize=1;align=center;verticalAlign=middle;points=[];fillColor=none;strokeColor=none;rounded=0;" parent="1" vertex="1">
          <mxGeometry x="259" y="3158" width="60" height="20" as="geometry" />
        </mxCell>
        <mxCell id="GYYIqo7okBZhqNfk181m-1" value="&lt;span style=&quot;font-size: 24px&quot;&gt;&lt;b&gt;时序图&lt;/b&gt;&lt;/span&gt;" style="text;html=1;strokeColor=none;fillColor=none;align=center;verticalAlign=middle;whiteSpace=wrap;rounded=0;" parent="1" vertex="1">
          <mxGeometry x="265" y="10" width="275" height="20" as="geometry" />
        </mxCell>
        <mxCell id="ttu63wnwoUbBbuzjsD4v-1" value="" style="rounded=0;whiteSpace=wrap;html=1;align=center;" parent="1" vertex="1">
          <mxGeometry x="75" y="190" width="10" height="70" as="geometry" />
        </mxCell>
        <mxCell id="ttu63wnwoUbBbuzjsD4v-2" value="" style="endArrow=none;html=1;curved=1;dashed=1;" parent="1" target="ttu63wnwoUbBbuzjsD4v-1" edge="1">
          <mxGeometry width="50" height="50" relative="1" as="geometry">
            <mxPoint x="80" y="310" as="sourcePoint" />
            <mxPoint x="80" y="140" as="targetPoint" />
          </mxGeometry>
        </mxCell>
        <mxCell id="ttu63wnwoUbBbuzjsD4v-7" value="" style="rounded=0;whiteSpace=wrap;html=1;align=center;" parent="1" vertex="1">
          <mxGeometry x="205" y="210" width="10" height="30" as="geometry" />
        </mxCell>
        <mxCell id="ttu63wnwoUbBbuzjsD4v-8" value="" style="endArrow=none;html=1;dashed=1;" parent="1" target="ttu63wnwoUbBbuzjsD4v-7" edge="1">
          <mxGeometry width="50" height="50" relative="1" as="geometry">
            <mxPoint x="210" y="310" as="sourcePoint" />
            <mxPoint x="209.65999999999985" y="140" as="targetPoint" />
          </mxGeometry>
        </mxCell>
        <mxCell id="ttu63wnwoUbBbuzjsD4v-9" value="" style="rounded=0;whiteSpace=wrap;html=1;align=center;" parent="1" vertex="1">
          <mxGeometry x="495" y="210" width="10" height="30" as="geometry" />
        </mxCell>
        <mxCell id="ttu63wnwoUbBbuzjsD4v-10" value="" style="endArrow=none;html=1;dashed=1;" parent="1" target="ttu63wnwoUbBbuzjsD4v-9" edge="1">
          <mxGeometry width="50" height="50" relative="1" as="geometry">
            <mxPoint x="500" y="310" as="sourcePoint" />
            <mxPoint x="499.6600000000001" y="140" as="targetPoint" />
          </mxGeometry>
        </mxCell>
        <mxCell id="ttu63wnwoUbBbuzjsD4v-11" value="" style="rounded=0;whiteSpace=wrap;html=1;align=center;" parent="1" vertex="1">
          <mxGeometry x="75" y="470" width="10" height="30" as="geometry" />
        </mxCell>
        <mxCell id="ttu63wnwoUbBbuzjsD4v-12" value="" style="endArrow=none;html=1;dashed=1;" parent="1" source="ttu63wnwoUbBbuzjsD4v-13" target="ttu63wnwoUbBbuzjsD4v-11" edge="1">
          <mxGeometry width="50" height="50" relative="1" as="geometry">
            <mxPoint x="80" y="922.0689655172414" as="sourcePoint" />
            <mxPoint x="80" y="450" as="targetPoint" />
          </mxGeometry>
        </mxCell>
        <mxCell id="ttu63wnwoUbBbuzjsD4v-13" value="" style="rounded=0;whiteSpace=wrap;html=1;align=center;" parent="1" vertex="1">
          <mxGeometry x="75" y="527" width="10" height="93" as="geometry" />
        </mxCell>
        <mxCell id="ttu63wnwoUbBbuzjsD4v-14" value="" style="endArrow=none;html=1;dashed=1;" parent="1" target="ttu63wnwoUbBbuzjsD4v-13" edge="1">
          <mxGeometry width="50" height="50" relative="1" as="geometry">
            <mxPoint x="80" y="922.0689655172414" as="sourcePoint" />
            <mxPoint x="80" y="500" as="targetPoint" />
          </mxGeometry>
        </mxCell>
        <mxCell id="ttu63wnwoUbBbuzjsD4v-15" value="" style="rounded=0;whiteSpace=wrap;html=1;align=center;" parent="1" vertex="1">
          <mxGeometry x="205" y="538.5" width="10" height="31.5" as="geometry" />
        </mxCell>
        <mxCell id="ttu63wnwoUbBbuzjsD4v-16" value="" style="endArrow=none;html=1;dashed=1;" parent="1" source="ttu63wnwoUbBbuzjsD4v-17" target="ttu63wnwoUbBbuzjsD4v-15" edge="1">
          <mxGeometry width="50" height="50" relative="1" as="geometry">
            <mxPoint x="209.66000000000008" y="922.0689655172414" as="sourcePoint" />
            <mxPoint x="209.66000000000008" y="450" as="targetPoint" />
          </mxGeometry>
        </mxCell>
        <mxCell id="ttu63wnwoUbBbuzjsD4v-17" value="" style="rounded=0;whiteSpace=wrap;html=1;align=center;" parent="1" vertex="1">
          <mxGeometry x="205" y="634.31" width="10" height="95.69" as="geometry" />
        </mxCell>
        <mxCell id="ttu63wnwoUbBbuzjsD4v-20" value="" style="endArrow=none;html=1;dashed=1;" parent="1" target="ttu63wnwoUbBbuzjsD4v-17" edge="1">
          <mxGeometry width="50" height="50" relative="1" as="geometry">
            <mxPoint x="209.66000000000008" y="922.0689655172414" as="sourcePoint" />
            <mxPoint x="209.99019631419515" y="560" as="targetPoint" />
          </mxGeometry>
        </mxCell>
        <mxCell id="ttu63wnwoUbBbuzjsD4v-22" value="" style="rounded=0;whiteSpace=wrap;html=1;align=center;" parent="1" vertex="1">
          <mxGeometry x="635" y="640" width="10" height="40" as="geometry" />
        </mxCell>
        <mxCell id="ttu63wnwoUbBbuzjsD4v-23" value="" style="endArrow=none;html=1;dashed=1;" parent="1" source="ttu63wnwoUbBbuzjsD4v-24" target="ttu63wnwoUbBbuzjsD4v-22" edge="1">
          <mxGeometry width="50" height="50" relative="1" as="geometry">
            <mxPoint x="639.6599999999999" y="922.0689655172414" as="sourcePoint" />
            <mxPoint x="639.6599999999999" y="450" as="targetPoint" />
          </mxGeometry>
        </mxCell>
        <mxCell id="ttu63wnwoUbBbuzjsD4v-24" value="" style="rounded=0;whiteSpace=wrap;html=1;align=center;" parent="1" vertex="1">
          <mxGeometry x="636" y="710" width="10" height="110" as="geometry" />
        </mxCell>
        <mxCell id="ttu63wnwoUbBbuzjsD4v-25" value="" style="endArrow=none;html=1;dashed=1;" parent="1" source="ttu63wnwoUbBbuzjsD4v-26" target="ttu63wnwoUbBbuzjsD4v-24" edge="1">
          <mxGeometry width="50" height="50" relative="1" as="geometry">
            <mxPoint x="639.6599999999999" y="922.0689655172414" as="sourcePoint" />
            <mxPoint x="639.9740526315788" y="680" as="targetPoint" />
          </mxGeometry>
        </mxCell>
        <mxCell id="ttu63wnwoUbBbuzjsD4v-26" value="" style="rounded=0;whiteSpace=wrap;html=1;align=center;" parent="1" vertex="1">
          <mxGeometry x="636" y="840" width="10" height="40" as="geometry" />
        </mxCell>
        <mxCell id="ttu63wnwoUbBbuzjsD4v-27" value="" style="endArrow=none;html=1;dashed=1;" parent="1" target="ttu63wnwoUbBbuzjsD4v-26" edge="1">
          <mxGeometry width="50" height="50" relative="1" as="geometry">
            <mxPoint x="639.6599999999999" y="922.0689655172414" as="sourcePoint" />
            <mxPoint x="640.5307793633369" y="820" as="targetPoint" />
          </mxGeometry>
        </mxCell>
        <mxCell id="ttu63wnwoUbBbuzjsD4v-32" value="" style="endArrow=none;html=1;dashed=1;" parent="1" source="ttu63wnwoUbBbuzjsD4v-49" edge="1">
          <mxGeometry width="50" height="50" relative="1" as="geometry">
            <mxPoint x="370.34000000000003" y="1770" as="sourcePoint" />
            <mxPoint x="370.0000000000001" y="1510" as="targetPoint" />
          </mxGeometry>
        </mxCell>
        <mxCell id="ttu63wnwoUbBbuzjsD4v-33" value="" style="rounded=0;whiteSpace=wrap;html=1;align=center;" parent="1" vertex="1">
          <mxGeometry x="75" y="1180" width="10" height="140" as="geometry" />
        </mxCell>
        <mxCell id="ttu63wnwoUbBbuzjsD4v-34" value="" style="endArrow=none;html=1;dashed=1;" parent="1" target="ttu63wnwoUbBbuzjsD4v-33" edge="1">
          <mxGeometry width="50" height="50" relative="1" as="geometry">
            <mxPoint x="81" y="1390" as="sourcePoint" />
            <mxPoint x="83" y="1130" as="targetPoint" />
          </mxGeometry>
        </mxCell>
        <mxCell id="ttu63wnwoUbBbuzjsD4v-35" value="" style="rounded=0;whiteSpace=wrap;html=1;align=center;" parent="1" vertex="1">
          <mxGeometry x="208" y="1200" width="10" height="30" as="geometry" />
        </mxCell>
        <mxCell id="ttu63wnwoUbBbuzjsD4v-36" value="" style="endArrow=none;html=1;dashed=1;" parent="1" source="ttu63wnwoUbBbuzjsD4v-37" target="ttu63wnwoUbBbuzjsD4v-35" edge="1">
          <mxGeometry width="50" height="50" relative="1" as="geometry">
            <mxPoint x="213" y="1390" as="sourcePoint" />
            <mxPoint x="212.66000000000008" y="1130" as="targetPoint" />
          </mxGeometry>
        </mxCell>
        <mxCell id="ttu63wnwoUbBbuzjsD4v-37" value="" style="rounded=0;whiteSpace=wrap;html=1;align=center;" parent="1" vertex="1">
          <mxGeometry x="208" y="1260" width="10" height="50" as="geometry" />
        </mxCell>
        <mxCell id="ttu63wnwoUbBbuzjsD4v-38" value="" style="endArrow=none;html=1;dashed=1;" parent="1" target="ttu63wnwoUbBbuzjsD4v-37" edge="1">
          <mxGeometry width="50" height="50" relative="1" as="geometry">
            <mxPoint x="213" y="1390" as="sourcePoint" />
            <mxPoint x="213" y="1230" as="targetPoint" />
          </mxGeometry>
        </mxCell>
        <mxCell id="ttu63wnwoUbBbuzjsD4v-39" value="" style="rounded=0;whiteSpace=wrap;html=1;align=center;" parent="1" vertex="1">
          <mxGeometry x="361" y="1200" width="10" height="30" as="geometry" />
        </mxCell>
        <mxCell id="ttu63wnwoUbBbuzjsD4v-40" value="" style="endArrow=none;html=1;dashed=1;" parent="1" target="ttu63wnwoUbBbuzjsD4v-39" edge="1">
          <mxGeometry width="50" height="50" relative="1" as="geometry">
            <mxPoint x="366" y="1390" as="sourcePoint" />
            <mxPoint x="365.6600000000001" y="1130" as="targetPoint" />
          </mxGeometry>
        </mxCell>
        <mxCell id="ttu63wnwoUbBbuzjsD4v-41" value="" style="rounded=0;whiteSpace=wrap;html=1;align=center;" parent="1" vertex="1">
          <mxGeometry x="638" y="1260" width="10" height="50" as="geometry" />
        </mxCell>
        <mxCell id="ttu63wnwoUbBbuzjsD4v-42" value="" style="endArrow=none;html=1;dashed=1;" parent="1" target="ttu63wnwoUbBbuzjsD4v-41" edge="1">
          <mxGeometry width="50" height="50" relative="1" as="geometry">
            <mxPoint x="643" y="1390" as="sourcePoint" />
            <mxPoint x="642.6599999999999" y="1130" as="targetPoint" />
          </mxGeometry>
        </mxCell>
        <mxCell id="ttu63wnwoUbBbuzjsD4v-43" value="" style="rounded=0;whiteSpace=wrap;html=1;align=center;" parent="1" vertex="1">
          <mxGeometry x="81" y="1576" width="10" height="140" as="geometry" />
        </mxCell>
        <mxCell id="ttu63wnwoUbBbuzjsD4v-44" value="" style="endArrow=none;html=1;dashed=1;" parent="1" target="ttu63wnwoUbBbuzjsD4v-43" edge="1">
          <mxGeometry width="50" height="50" relative="1" as="geometry">
            <mxPoint x="84" y="1780" as="sourcePoint" />
            <mxPoint x="86" y="1520" as="targetPoint" />
          </mxGeometry>
        </mxCell>
        <mxCell id="ttu63wnwoUbBbuzjsD4v-45" value="" style="rounded=0;whiteSpace=wrap;html=1;align=center;" parent="1" vertex="1">
          <mxGeometry x="211" y="1590" width="10" height="30" as="geometry" />
        </mxCell>
        <mxCell id="ttu63wnwoUbBbuzjsD4v-46" value="" style="endArrow=none;html=1;dashed=1;" parent="1" source="ttu63wnwoUbBbuzjsD4v-47" target="ttu63wnwoUbBbuzjsD4v-45" edge="1">
          <mxGeometry width="50" height="50" relative="1" as="geometry">
            <mxPoint x="216" y="1780" as="sourcePoint" />
            <mxPoint x="215.66000000000008" y="1520" as="targetPoint" />
          </mxGeometry>
        </mxCell>
        <mxCell id="ttu63wnwoUbBbuzjsD4v-47" value="" style="rounded=0;whiteSpace=wrap;html=1;align=center;" parent="1" vertex="1">
          <mxGeometry x="211" y="1650" width="10" height="30" as="geometry" />
        </mxCell>
        <mxCell id="ttu63wnwoUbBbuzjsD4v-48" value="" style="endArrow=none;html=1;dashed=1;" parent="1" target="ttu63wnwoUbBbuzjsD4v-47" edge="1">
          <mxGeometry width="50" height="50" relative="1" as="geometry">
            <mxPoint x="216" y="1780" as="sourcePoint" />
            <mxPoint x="216" y="1620" as="targetPoint" />
          </mxGeometry>
        </mxCell>
        <mxCell id="ttu63wnwoUbBbuzjsD4v-49" value="" style="rounded=0;whiteSpace=wrap;html=1;align=center;" parent="1" vertex="1">
          <mxGeometry x="364" y="1590" width="10" height="30" as="geometry" />
        </mxCell>
        <mxCell id="ttu63wnwoUbBbuzjsD4v-50" value="" style="endArrow=none;html=1;dashed=1;" parent="1" target="ttu63wnwoUbBbuzjsD4v-49" edge="1">
          <mxGeometry width="50" height="50" relative="1" as="geometry">
            <mxPoint x="370.34000000000015" y="1770" as="sourcePoint" />
            <mxPoint x="370" y="1510" as="targetPoint" />
          </mxGeometry>
        </mxCell>
        <mxCell id="ttu63wnwoUbBbuzjsD4v-51" value="" style="rounded=0;whiteSpace=wrap;html=1;align=center;" parent="1" vertex="1">
          <mxGeometry x="640" y="1650" width="10" height="30" as="geometry" />
        </mxCell>
        <mxCell id="ttu63wnwoUbBbuzjsD4v-52" value="" style="endArrow=none;html=1;dashed=1;" parent="1" target="ttu63wnwoUbBbuzjsD4v-51" edge="1">
          <mxGeometry width="50" height="50" relative="1" as="geometry">
            <mxPoint x="646" y="1780" as="sourcePoint" />
            <mxPoint x="645.6599999999996" y="1520" as="targetPoint" />
          </mxGeometry>
        </mxCell>
        <mxCell id="ttu63wnwoUbBbuzjsD4v-53" value="" style="rounded=0;whiteSpace=wrap;html=1;align=center;" parent="1" vertex="1">
          <mxGeometry x="81" y="2029.31" width="10" height="90.69" as="geometry" />
        </mxCell>
        <mxCell id="ttu63wnwoUbBbuzjsD4v-54" value="" style="endArrow=none;html=1;dashed=1;" parent="1" target="ttu63wnwoUbBbuzjsD4v-53" edge="1">
          <mxGeometry width="50" height="50" relative="1" as="geometry">
            <mxPoint x="86" y="2422.0689655172414" as="sourcePoint" />
            <mxPoint x="86" y="1950" as="targetPoint" />
          </mxGeometry>
        </mxCell>
        <mxCell id="ttu63wnwoUbBbuzjsD4v-56" value="" style="endArrow=none;html=1;dashed=1;" parent="1" source="ttu63wnwoUbBbuzjsD4v-61" edge="1">
          <mxGeometry width="50" height="50" relative="1" as="geometry">
            <mxPoint x="215.66000000000008" y="2422.0689655172414" as="sourcePoint" />
            <mxPoint x="216" y="2062" as="targetPoint" />
          </mxGeometry>
        </mxCell>
        <mxCell id="ttu63wnwoUbBbuzjsD4v-57" value="" style="rounded=0;whiteSpace=wrap;html=1;align=center;" parent="1" vertex="1">
          <mxGeometry x="364" y="2059.31" width="10" height="30" as="geometry" />
        </mxCell>
        <mxCell id="ttu63wnwoUbBbuzjsD4v-58" value="" style="endArrow=none;html=1;dashed=1;" parent="1" target="ttu63wnwoUbBbuzjsD4v-57" edge="1">
          <mxGeometry width="50" height="50" relative="1" as="geometry">
            <mxPoint x="368.6600000000001" y="2422.0689655172414" as="sourcePoint" />
            <mxPoint x="368.6600000000001" y="1950" as="targetPoint" />
          </mxGeometry>
        </mxCell>
        <mxCell id="ttu63wnwoUbBbuzjsD4v-59" value="" style="rounded=0;whiteSpace=wrap;html=1;align=center;" parent="1" vertex="1">
          <mxGeometry x="641" y="2115" width="10" height="65" as="geometry" />
        </mxCell>
        <mxCell id="ttu63wnwoUbBbuzjsD4v-60" value="" style="endArrow=none;html=1;dashed=1;" parent="1" source="ttu63wnwoUbBbuzjsD4v-63" target="ttu63wnwoUbBbuzjsD4v-59" edge="1">
          <mxGeometry width="50" height="50" relative="1" as="geometry">
            <mxPoint x="645.6599999999999" y="2422.0689655172414" as="sourcePoint" />
            <mxPoint x="645.6599999999999" y="1950" as="targetPoint" />
          </mxGeometry>
        </mxCell>
        <mxCell id="ttu63wnwoUbBbuzjsD4v-61" value="" style="rounded=0;whiteSpace=wrap;html=1;align=center;" parent="1" vertex="1">
          <mxGeometry x="211" y="2030" width="10" height="200" as="geometry" />
        </mxCell>
        <mxCell id="ttu63wnwoUbBbuzjsD4v-62" value="" style="endArrow=none;html=1;dashed=1;" parent="1" source="ttu63wnwoUbBbuzjsD4v-67" target="ttu63wnwoUbBbuzjsD4v-61" edge="1">
          <mxGeometry width="50" height="50" relative="1" as="geometry">
            <mxPoint x="215.66000000000008" y="2422.0689655172414" as="sourcePoint" />
            <mxPoint x="215.98640250068956" y="2062" as="targetPoint" />
          </mxGeometry>
        </mxCell>
        <mxCell id="ttu63wnwoUbBbuzjsD4v-63" value="" style="rounded=0;whiteSpace=wrap;html=1;align=center;" parent="1" vertex="1">
          <mxGeometry x="641" y="2290" width="10" height="40" as="geometry" />
        </mxCell>
        <mxCell id="ttu63wnwoUbBbuzjsD4v-64" value="" style="endArrow=none;html=1;dashed=1;" parent="1" target="ttu63wnwoUbBbuzjsD4v-63" edge="1">
          <mxGeometry width="50" height="50" relative="1" as="geometry">
            <mxPoint x="645.6599999999999" y="2422.0689655172414" as="sourcePoint" />
            <mxPoint x="645.9597551020408" y="2180" as="targetPoint" />
          </mxGeometry>
        </mxCell>
        <mxCell id="ttu63wnwoUbBbuzjsD4v-65" value="" style="rounded=0;whiteSpace=wrap;html=1;align=center;" parent="1" vertex="1">
          <mxGeometry x="501" y="2270" width="10" height="80" as="geometry" />
        </mxCell>
        <mxCell id="ttu63wnwoUbBbuzjsD4v-66" value="" style="endArrow=none;html=1;dashed=1;" parent="1" target="ttu63wnwoUbBbuzjsD4v-65" edge="1">
          <mxGeometry width="50" height="50" relative="1" as="geometry">
            <mxPoint x="505.65999999999985" y="2422.0689655172414" as="sourcePoint" />
            <mxPoint x="505.986511627907" y="2180" as="targetPoint" />
          </mxGeometry>
        </mxCell>
        <mxCell id="ttu63wnwoUbBbuzjsD4v-67" value="" style="rounded=0;whiteSpace=wrap;html=1;align=center;" parent="1" vertex="1">
          <mxGeometry x="211" y="2270" width="10" height="120" as="geometry" />
        </mxCell>
        <mxCell id="ttu63wnwoUbBbuzjsD4v-68" value="" style="endArrow=none;html=1;dashed=1;" parent="1" target="ttu63wnwoUbBbuzjsD4v-67" edge="1">
          <mxGeometry width="50" height="50" relative="1" as="geometry">
            <mxPoint x="215.66000000000008" y="2422.0689655172414" as="sourcePoint" />
            <mxPoint x="215.96793495934958" y="2230" as="targetPoint" />
          </mxGeometry>
        </mxCell>
        <mxCell id="ttu63wnwoUbBbuzjsD4v-69" value="" style="rounded=0;whiteSpace=wrap;html=1;align=center;" parent="1" vertex="1">
          <mxGeometry x="75" y="2672" width="10" height="90.69" as="geometry" />
        </mxCell>
        <mxCell id="ttu63wnwoUbBbuzjsD4v-70" value="" style="endArrow=none;html=1;dashed=1;" parent="1" target="ttu63wnwoUbBbuzjsD4v-69" edge="1">
          <mxGeometry width="50" height="50" relative="1" as="geometry">
            <mxPoint x="80" y="2830" as="sourcePoint" />
            <mxPoint x="80" y="2590" as="targetPoint" />
          </mxGeometry>
        </mxCell>
        <mxCell id="ttu63wnwoUbBbuzjsD4v-71" value="" style="rounded=0;whiteSpace=wrap;html=1;align=center;" parent="1" vertex="1">
          <mxGeometry x="205" y="2699.66" width="10" height="50.34" as="geometry" />
        </mxCell>
        <mxCell id="ttu63wnwoUbBbuzjsD4v-72" value="" style="endArrow=none;html=1;dashed=1;" parent="1" target="ttu63wnwoUbBbuzjsD4v-71" edge="1">
          <mxGeometry width="50" height="50" relative="1" as="geometry">
            <mxPoint x="210" y="2830" as="sourcePoint" />
            <mxPoint x="209.66000000000008" y="2590" as="targetPoint" />
          </mxGeometry>
        </mxCell>
        <mxCell id="ttu63wnwoUbBbuzjsD4v-73" value="" style="rounded=0;whiteSpace=wrap;html=1;align=center;" parent="1" vertex="1">
          <mxGeometry x="358" y="2698.97" width="10" height="21.03" as="geometry" />
        </mxCell>
        <mxCell id="ttu63wnwoUbBbuzjsD4v-74" value="" style="endArrow=none;html=1;dashed=1;" parent="1" target="ttu63wnwoUbBbuzjsD4v-73" edge="1">
          <mxGeometry width="50" height="50" relative="1" as="geometry">
            <mxPoint x="363" y="2830" as="sourcePoint" />
            <mxPoint x="362.6600000000001" y="2590" as="targetPoint" />
          </mxGeometry>
        </mxCell>
        <mxCell id="ttu63wnwoUbBbuzjsD4v-75" value="" style="rounded=0;whiteSpace=wrap;html=1;align=center;" parent="1" vertex="1">
          <mxGeometry x="635" y="2757.83" width="10" height="50.34" as="geometry" />
        </mxCell>
        <mxCell id="ttu63wnwoUbBbuzjsD4v-76" value="" style="endArrow=none;html=1;dashed=1;" parent="1" target="ttu63wnwoUbBbuzjsD4v-75" edge="1">
          <mxGeometry width="50" height="50" relative="1" as="geometry">
            <mxPoint x="640" y="2830" as="sourcePoint" />
            <mxPoint x="639.6599999999999" y="2590" as="targetPoint" />
          </mxGeometry>
        </mxCell>
        <mxCell id="ttu63wnwoUbBbuzjsD4v-77" value="" style="rounded=0;whiteSpace=wrap;html=1;align=center;" parent="1" vertex="1">
          <mxGeometry x="78" y="3098" width="10" height="90.69" as="geometry" />
        </mxCell>
        <mxCell id="ttu63wnwoUbBbuzjsD4v-78" value="" style="endArrow=none;html=1;dashed=1;" parent="1" target="ttu63wnwoUbBbuzjsD4v-77" edge="1">
          <mxGeometry width="50" height="50" relative="1" as="geometry">
            <mxPoint x="83" y="3256" as="sourcePoint" />
            <mxPoint x="83" y="3016" as="targetPoint" />
          </mxGeometry>
        </mxCell>
        <mxCell id="ttu63wnwoUbBbuzjsD4v-79" value="" style="rounded=0;whiteSpace=wrap;html=1;align=center;" parent="1" vertex="1">
          <mxGeometry x="207.5" y="3098" width="10" height="90.69" as="geometry" />
        </mxCell>
        <mxCell id="ttu63wnwoUbBbuzjsD4v-81" value="" style="endArrow=none;html=1;dashed=1;" parent="1" target="ttu63wnwoUbBbuzjsD4v-79" edge="1">
          <mxGeometry width="50" height="50" relative="1" as="geometry">
            <mxPoint x="213" y="3256" as="sourcePoint" />
            <mxPoint x="212.66000000000008" y="3016" as="targetPoint" />
          </mxGeometry>
        </mxCell>
        <mxCell id="ttu63wnwoUbBbuzjsD4v-82" value="" style="rounded=0;whiteSpace=wrap;html=1;align=center;" parent="1" vertex="1">
          <mxGeometry x="81" y="3474.97" width="10" height="135.03" as="geometry" />
        </mxCell>
        <mxCell id="ttu63wnwoUbBbuzjsD4v-83" value="" style="endArrow=none;html=1;dashed=1;" parent="1" target="ttu63wnwoUbBbuzjsD4v-82" edge="1">
          <mxGeometry width="50" height="50" relative="1" as="geometry">
            <mxPoint x="86" y="3636" as="sourcePoint" />
            <mxPoint x="86" y="3396" as="targetPoint" />
          </mxGeometry>
        </mxCell>
        <mxCell id="ttu63wnwoUbBbuzjsD4v-84" value="" style="rounded=0;whiteSpace=wrap;html=1;align=center;" parent="1" vertex="1">
          <mxGeometry x="211" y="3503.49" width="10" height="106.51" as="geometry" />
        </mxCell>
        <mxCell id="ttu63wnwoUbBbuzjsD4v-85" value="" style="endArrow=none;html=1;dashed=1;" parent="1" target="ttu63wnwoUbBbuzjsD4v-84" edge="1">
          <mxGeometry width="50" height="50" relative="1" as="geometry">
            <mxPoint x="216" y="3636" as="sourcePoint" />
            <mxPoint x="215.66000000000008" y="3396" as="targetPoint" />
          </mxGeometry>
        </mxCell>
        <mxCell id="ttu63wnwoUbBbuzjsD4v-86" value="" style="rounded=0;whiteSpace=wrap;html=1;align=center;" parent="1" vertex="1">
          <mxGeometry x="641" y="3565" width="10" height="30" as="geometry" />
        </mxCell>
        <mxCell id="ttu63wnwoUbBbuzjsD4v-87" value="" style="endArrow=none;html=1;dashed=1;" parent="1" target="ttu63wnwoUbBbuzjsD4v-86" edge="1">
          <mxGeometry width="50" height="50" relative="1" as="geometry">
            <mxPoint x="645.9999999999998" y="3636" as="sourcePoint" />
            <mxPoint x="645.6599999999999" y="3396" as="targetPoint" />
          </mxGeometry>
        </mxCell>
      </root>
    </mxGraphModel>
  </diagram>
  <diagram id="j1maZ3PwmT0PPYRGeJKk" name="流程图">
    <mxGraphModel dx="1214" dy="676" grid="1" gridSize="10" guides="1" tooltips="1" connect="1" arrows="1" fold="1" page="1" pageScale="1" pageWidth="827" pageHeight="1169" math="0" shadow="0">
      <root>
        <mxCell id="GTBIIHUijziVZcfz0fXT-0" />
        <mxCell id="GTBIIHUijziVZcfz0fXT-1" parent="GTBIIHUijziVZcfz0fXT-0" />
        <mxCell id="ZBOT-Dl1b58GQsF9GZ2X-6" value="" style="edgeStyle=orthogonalEdgeStyle;rounded=0;orthogonalLoop=1;jettySize=auto;html=1;" edge="1" parent="GTBIIHUijziVZcfz0fXT-1" source="ZBOT-Dl1b58GQsF9GZ2X-0">
          <mxGeometry relative="1" as="geometry">
            <mxPoint x="400" y="180" as="targetPoint" />
          </mxGeometry>
        </mxCell>
        <mxCell id="ZBOT-Dl1b58GQsF9GZ2X-0" value="开始" style="rounded=1;whiteSpace=wrap;html=1;" vertex="1" parent="GTBIIHUijziVZcfz0fXT-1">
          <mxGeometry x="360" y="100" width="80" height="40" as="geometry" />
        </mxCell>
        <mxCell id="ZBOT-Dl1b58GQsF9GZ2X-1" value="实例创建" style="shape=callout;whiteSpace=wrap;html=1;perimeter=calloutPerimeter;" vertex="1" parent="GTBIIHUijziVZcfz0fXT-1">
          <mxGeometry x="370" y="30" width="60" height="60" as="geometry" />
        </mxCell>
        <mxCell id="ZBOT-Dl1b58GQsF9GZ2X-4" value="创建失败" style="rounded=1;whiteSpace=wrap;html=1;" vertex="1" parent="GTBIIHUijziVZcfz0fXT-1">
          <mxGeometry x="640" y="100" width="80" height="40" as="geometry" />
        </mxCell>
        <mxCell id="ZBOT-Dl1b58GQsF9GZ2X-5" value="创建成功，返回实例ID" style="rounded=1;whiteSpace=wrap;html=1;" vertex="1" parent="GTBIIHUijziVZcfz0fXT-1">
          <mxGeometry x="70" y="100" width="80" height="40" as="geometry" />
        </mxCell>
        <mxCell id="zVA1TYOQvtIa609AZ-eP-1" value="" style="edgeStyle=orthogonalEdgeStyle;rounded=0;orthogonalLoop=1;jettySize=auto;html=1;" edge="1" parent="GTBIIHUijziVZcfz0fXT-1" source="t8WZ3Y-afBprxBisfAC7-4" target="zVA1TYOQvtIa609AZ-eP-0">
          <mxGeometry relative="1" as="geometry" />
        </mxCell>
        <mxCell id="ZBOT-Dl1b58GQsF9GZ2X-9" value="存储实例信息，&lt;br&gt;设置状态为：&lt;span&gt;agent_offline&lt;/span&gt;" style="rounded=0;whiteSpace=wrap;html=1;" vertex="1" parent="GTBIIHUijziVZcfz0fXT-1">
          <mxGeometry x="327.5" y="378" width="145" height="40" as="geometry" />
        </mxCell>
        <mxCell id="ZBOT-Dl1b58GQsF9GZ2X-10" value="" style="curved=1;endArrow=classic;html=1;entryX=0;entryY=0.5;entryDx=0;entryDy=0;exitX=1;exitY=0.5;exitDx=0;exitDy=0;" edge="1" parent="GTBIIHUijziVZcfz0fXT-1" source="ZBOT-Dl1b58GQsF9GZ2X-11" target="ZBOT-Dl1b58GQsF9GZ2X-4">
          <mxGeometry width="50" height="50" relative="1" as="geometry">
            <mxPoint x="445" y="200" as="sourcePoint" />
            <mxPoint x="495" y="150" as="targetPoint" />
            <Array as="points">
              <mxPoint x="520" y="210" />
              <mxPoint x="580" y="180" />
            </Array>
          </mxGeometry>
        </mxCell>
        <mxCell id="jc5cxDx_MKb0XUjgw1Bi-1" value="" style="edgeStyle=orthogonalEdgeStyle;rounded=0;orthogonalLoop=1;jettySize=auto;html=1;" edge="1" parent="GTBIIHUijziVZcfz0fXT-1" source="ZBOT-Dl1b58GQsF9GZ2X-11" target="jc5cxDx_MKb0XUjgw1Bi-0">
          <mxGeometry relative="1" as="geometry" />
        </mxCell>
        <mxCell id="ZBOT-Dl1b58GQsF9GZ2X-11" value="资源检查" style="rhombus;whiteSpace=wrap;html=1;" vertex="1" parent="GTBIIHUijziVZcfz0fXT-1">
          <mxGeometry x="315" y="180" width="170" height="60" as="geometry" />
        </mxCell>
        <mxCell id="ZBOT-Dl1b58GQsF9GZ2X-12" value="检查不通过&lt;br&gt;mdw=smdw&lt;br&gt;sdw1=sdw2=sdw3" style="text;html=1;strokeColor=none;fillColor=none;align=left;verticalAlign=middle;whiteSpace=wrap;rounded=0;" vertex="1" parent="GTBIIHUijziVZcfz0fXT-1">
          <mxGeometry x="485" y="220" width="125" height="50" as="geometry" />
        </mxCell>
        <mxCell id="lAl8n7N4P8yjm4t54daC-1" value="" style="edgeStyle=orthogonalEdgeStyle;rounded=0;orthogonalLoop=1;jettySize=auto;html=1;" edge="1" parent="GTBIIHUijziVZcfz0fXT-1" source="zVA1TYOQvtIa609AZ-eP-0" target="lAl8n7N4P8yjm4t54daC-0">
          <mxGeometry relative="1" as="geometry" />
        </mxCell>
        <mxCell id="zVA1TYOQvtIa609AZ-eP-0" value="通知RM进行安装" style="whiteSpace=wrap;html=1;rounded=0;" vertex="1" parent="GTBIIHUijziVZcfz0fXT-1">
          <mxGeometry x="325" y="480" width="150" height="40" as="geometry" />
        </mxCell>
        <mxCell id="FYWlqTIok6GxMV1A6hTw-1" value="" style="edgeStyle=orthogonalEdgeStyle;rounded=0;orthogonalLoop=1;jettySize=auto;html=1;" edge="1" parent="GTBIIHUijziVZcfz0fXT-1" source="lAl8n7N4P8yjm4t54daC-0" target="FYWlqTIok6GxMV1A6hTw-0">
          <mxGeometry relative="1" as="geometry" />
        </mxCell>
        <mxCell id="lAl8n7N4P8yjm4t54daC-0" value="遍历所有主机，等待状态变为agent_online" style="whiteSpace=wrap;html=1;rounded=0;" vertex="1" parent="GTBIIHUijziVZcfz0fXT-1">
          <mxGeometry x="325" y="560" width="150" height="50" as="geometry" />
        </mxCell>
        <mxCell id="t8WZ3Y-afBprxBisfAC7-1" value="" style="edgeStyle=orthogonalEdgeStyle;rounded=0;orthogonalLoop=1;jettySize=auto;html=1;" edge="1" parent="GTBIIHUijziVZcfz0fXT-1" source="FYWlqTIok6GxMV1A6hTw-0">
          <mxGeometry relative="1" as="geometry">
            <mxPoint x="400" y="720" as="targetPoint" />
          </mxGeometry>
        </mxCell>
        <mxCell id="FYWlqTIok6GxMV1A6hTw-0" value="修改状态为&lt;span&gt;provisioned&lt;/span&gt;" style="whiteSpace=wrap;html=1;rounded=0;" vertex="1" parent="GTBIIHUijziVZcfz0fXT-1">
          <mxGeometry x="325" y="640" width="150" height="45" as="geometry" />
        </mxCell>
        <mxCell id="jc5cxDx_MKb0XUjgw1Bi-0" value="创建实例ID" style="whiteSpace=wrap;html=1;" vertex="1" parent="GTBIIHUijziVZcfz0fXT-1">
          <mxGeometry x="340" y="298" width="120" height="40" as="geometry" />
        </mxCell>
        <mxCell id="jc5cxDx_MKb0XUjgw1Bi-2" value="" style="endArrow=classic;html=1;exitX=0.5;exitY=1;exitDx=0;exitDy=0;entryX=0.5;entryY=0;entryDx=0;entryDy=0;" edge="1" parent="GTBIIHUijziVZcfz0fXT-1" source="jc5cxDx_MKb0XUjgw1Bi-0" target="ZBOT-Dl1b58GQsF9GZ2X-9">
          <mxGeometry width="50" height="50" relative="1" as="geometry">
            <mxPoint x="360" y="498" as="sourcePoint" />
            <mxPoint x="410" y="448" as="targetPoint" />
          </mxGeometry>
        </mxCell>
        <mxCell id="jc5cxDx_MKb0XUjgw1Bi-3" value="" style="curved=1;endArrow=classic;html=1;exitX=0;exitY=0.5;exitDx=0;exitDy=0;entryX=0.5;entryY=1;entryDx=0;entryDy=0;" edge="1" parent="GTBIIHUijziVZcfz0fXT-1" source="ZBOT-Dl1b58GQsF9GZ2X-9" target="ZBOT-Dl1b58GQsF9GZ2X-5">
          <mxGeometry width="50" height="50" relative="1" as="geometry">
            <mxPoint x="360" y="440" as="sourcePoint" />
            <mxPoint x="410" y="390" as="targetPoint" />
            <Array as="points">
              <mxPoint x="240" y="380" />
              <mxPoint x="140" y="290" />
            </Array>
          </mxGeometry>
        </mxCell>
        <mxCell id="t8WZ3Y-afBprxBisfAC7-2" value="处理结束" style="rounded=1;whiteSpace=wrap;html=1;align=center;" vertex="1" parent="GTBIIHUijziVZcfz0fXT-1">
          <mxGeometry x="365" y="720" width="70" height="40" as="geometry" />
        </mxCell>
        <mxCell id="t8WZ3Y-afBprxBisfAC7-4" value="起协程" style="text;html=1;strokeColor=none;fillColor=none;align=center;verticalAlign=middle;whiteSpace=wrap;rounded=0;fontStyle=1" vertex="1" parent="GTBIIHUijziVZcfz0fXT-1">
          <mxGeometry x="380" y="440" width="40" height="20" as="geometry" />
        </mxCell>
        <mxCell id="t8WZ3Y-afBprxBisfAC7-5" value="" style="edgeStyle=orthogonalEdgeStyle;rounded=0;orthogonalLoop=1;jettySize=auto;html=1;" edge="1" parent="GTBIIHUijziVZcfz0fXT-1" source="ZBOT-Dl1b58GQsF9GZ2X-9" target="t8WZ3Y-afBprxBisfAC7-4">
          <mxGeometry relative="1" as="geometry">
            <mxPoint x="400" y="418" as="sourcePoint" />
            <mxPoint x="400" y="458" as="targetPoint" />
          </mxGeometry>
        </mxCell>
        <mxCell id="t8WZ3Y-afBprxBisfAC7-6" value="" style="endArrow=classic;html=1;exitX=1;exitY=0.5;exitDx=0;exitDy=0;" edge="1" parent="GTBIIHUijziVZcfz0fXT-1" source="zVA1TYOQvtIa609AZ-eP-0">
          <mxGeometry width="50" height="50" relative="1" as="geometry">
            <mxPoint x="360" y="600" as="sourcePoint" />
            <mxPoint x="560" y="500" as="targetPoint" />
          </mxGeometry>
        </mxCell>
        <mxCell id="t8WZ3Y-afBprxBisfAC7-7" value="RM处理" style="rounded=1;whiteSpace=wrap;html=1;align=center;" vertex="1" parent="GTBIIHUijziVZcfz0fXT-1">
          <mxGeometry x="560" y="480" width="70" height="40" as="geometry" />
        </mxCell>
        <mxCell id="t8WZ3Y-afBprxBisfAC7-8" value="存consul" style="rounded=1;whiteSpace=wrap;html=1;align=center;" vertex="1" parent="GTBIIHUijziVZcfz0fXT-1">
          <mxGeometry x="560" y="378" width="70" height="42" as="geometry" />
        </mxCell>
        <mxCell id="t8WZ3Y-afBprxBisfAC7-9" value="" style="endArrow=classic;html=1;entryX=0;entryY=0.5;entryDx=0;entryDy=0;exitX=1;exitY=0.5;exitDx=0;exitDy=0;" edge="1" parent="GTBIIHUijziVZcfz0fXT-1" source="ZBOT-Dl1b58GQsF9GZ2X-9" target="t8WZ3Y-afBprxBisfAC7-8">
          <mxGeometry width="50" height="50" relative="1" as="geometry">
            <mxPoint x="360" y="430" as="sourcePoint" />
            <mxPoint x="410" y="380" as="targetPoint" />
          </mxGeometry>
        </mxCell>
        <mxCell id="t8WZ3Y-afBprxBisfAC7-10" value="下发Agent" style="rounded=1;whiteSpace=wrap;html=1;align=center;" vertex="1" parent="GTBIIHUijziVZcfz0fXT-1">
          <mxGeometry x="690" y="485" width="70" height="30" as="geometry" />
        </mxCell>
        <mxCell id="t8WZ3Y-afBprxBisfAC7-11" value="" style="endArrow=classic;html=1;entryX=0;entryY=0.5;entryDx=0;entryDy=0;exitX=1;exitY=0.5;exitDx=0;exitDy=0;" edge="1" parent="GTBIIHUijziVZcfz0fXT-1" source="t8WZ3Y-afBprxBisfAC7-7" target="t8WZ3Y-afBprxBisfAC7-10">
          <mxGeometry width="50" height="50" relative="1" as="geometry">
            <mxPoint x="360" y="600" as="sourcePoint" />
            <mxPoint x="410" y="550" as="targetPoint" />
          </mxGeometry>
        </mxCell>
        <mxCell id="t8WZ3Y-afBprxBisfAC7-13" value="" style="curved=1;endArrow=classic;html=1;entryX=1;entryY=0.5;entryDx=0;entryDy=0;exitX=1;exitY=0.5;exitDx=0;exitDy=0;" edge="1" parent="GTBIIHUijziVZcfz0fXT-1" source="t8WZ3Y-afBprxBisfAC7-10" target="t8WZ3Y-afBprxBisfAC7-8">
          <mxGeometry width="50" height="50" relative="1" as="geometry">
            <mxPoint x="360" y="600" as="sourcePoint" />
            <mxPoint x="410" y="550" as="targetPoint" />
            <Array as="points">
              <mxPoint x="790" y="420" />
              <mxPoint x="740" y="399" />
            </Array>
          </mxGeometry>
        </mxCell>
        <mxCell id="t8WZ3Y-afBprxBisfAC7-14" value="修改" style="text;html=1;strokeColor=none;fillColor=none;align=center;verticalAlign=middle;whiteSpace=wrap;rounded=0;" vertex="1" parent="GTBIIHUijziVZcfz0fXT-1">
          <mxGeometry x="720" y="430" width="40" height="20" as="geometry" />
        </mxCell>
        <mxCell id="t8WZ3Y-afBprxBisfAC7-15" value="下发Agent" style="rounded=1;whiteSpace=wrap;html=1;align=center;" vertex="1" parent="GTBIIHUijziVZcfz0fXT-1">
          <mxGeometry x="690" y="520" width="70" height="30" as="geometry" />
        </mxCell>
        <mxCell id="t8WZ3Y-afBprxBisfAC7-16" value="下发Agent" style="rounded=1;whiteSpace=wrap;html=1;align=center;" vertex="1" parent="GTBIIHUijziVZcfz0fXT-1">
          <mxGeometry x="690" y="570" width="70" height="30" as="geometry" />
        </mxCell>
        <mxCell id="t8WZ3Y-afBprxBisfAC7-17" value="" style="endArrow=classic;html=1;entryX=0;entryY=0.5;entryDx=0;entryDy=0;exitX=1;exitY=0.5;exitDx=0;exitDy=0;" edge="1" parent="GTBIIHUijziVZcfz0fXT-1" source="t8WZ3Y-afBprxBisfAC7-7" target="t8WZ3Y-afBprxBisfAC7-15">
          <mxGeometry width="50" height="50" relative="1" as="geometry">
            <mxPoint x="360" y="600" as="sourcePoint" />
            <mxPoint x="410" y="550" as="targetPoint" />
          </mxGeometry>
        </mxCell>
        <mxCell id="t8WZ3Y-afBprxBisfAC7-18" value="" style="endArrow=classic;html=1;entryX=0;entryY=0.5;entryDx=0;entryDy=0;exitX=1;exitY=0.5;exitDx=0;exitDy=0;" edge="1" parent="GTBIIHUijziVZcfz0fXT-1" source="t8WZ3Y-afBprxBisfAC7-7" target="t8WZ3Y-afBprxBisfAC7-16">
          <mxGeometry width="50" height="50" relative="1" as="geometry">
            <mxPoint x="360" y="600" as="sourcePoint" />
            <mxPoint x="410" y="550" as="targetPoint" />
          </mxGeometry>
        </mxCell>
        <mxCell id="t8WZ3Y-afBprxBisfAC7-19" value="" style="curved=1;endArrow=classic;html=1;exitX=1;exitY=0.5;exitDx=0;exitDy=0;entryX=1;entryY=0.5;entryDx=0;entryDy=0;" edge="1" parent="GTBIIHUijziVZcfz0fXT-1" source="t8WZ3Y-afBprxBisfAC7-15" target="t8WZ3Y-afBprxBisfAC7-8">
          <mxGeometry width="50" height="50" relative="1" as="geometry">
            <mxPoint x="590" y="450" as="sourcePoint" />
            <mxPoint x="640" y="400" as="targetPoint" />
            <Array as="points">
              <mxPoint x="800" y="450" />
              <mxPoint x="790" y="400" />
            </Array>
          </mxGeometry>
        </mxCell>
        <mxCell id="t8WZ3Y-afBprxBisfAC7-20" value="" style="curved=1;endArrow=classic;html=1;" edge="1" parent="GTBIIHUijziVZcfz0fXT-1">
          <mxGeometry width="50" height="50" relative="1" as="geometry">
            <mxPoint x="760" y="585" as="sourcePoint" />
            <mxPoint x="630" y="400" as="targetPoint" />
            <Array as="points">
              <mxPoint x="800" y="520" />
              <mxPoint x="820" y="390" />
            </Array>
          </mxGeometry>
        </mxCell>
        <mxCell id="t8WZ3Y-afBprxBisfAC7-21" value="" style="curved=1;endArrow=classic;html=1;entryX=1;entryY=0.5;entryDx=0;entryDy=0;" edge="1" parent="GTBIIHUijziVZcfz0fXT-1" target="lAl8n7N4P8yjm4t54daC-0">
          <mxGeometry width="50" height="50" relative="1" as="geometry">
            <mxPoint x="590" y="420" as="sourcePoint" />
            <mxPoint x="640" y="370" as="targetPoint" />
            <Array as="points">
              <mxPoint x="490" y="500" />
            </Array>
          </mxGeometry>
        </mxCell>
        <mxCell id="t8WZ3Y-afBprxBisfAC7-24" value="Text" style="edgeLabel;html=1;align=center;verticalAlign=middle;resizable=0;points=[];" vertex="1" connectable="0" parent="t8WZ3Y-afBprxBisfAC7-21">
          <mxGeometry x="-0.8017" y="-3" relative="1" as="geometry">
            <mxPoint as="offset" />
          </mxGeometry>
        </mxCell>
        <mxCell id="t8WZ3Y-afBprxBisfAC7-22" value="读取" style="text;html=1;strokeColor=none;fillColor=none;align=center;verticalAlign=middle;whiteSpace=wrap;rounded=0;" vertex="1" parent="GTBIIHUijziVZcfz0fXT-1">
          <mxGeometry x="472.5" y="530" width="40" height="20" as="geometry" />
        </mxCell>
        <mxCell id="t8WZ3Y-afBprxBisfAC7-23" value="" style="curved=1;endArrow=classic;html=1;entryX=0.75;entryY=1;entryDx=0;entryDy=0;" edge="1" parent="GTBIIHUijziVZcfz0fXT-1" target="t8WZ3Y-afBprxBisfAC7-8">
          <mxGeometry width="50" height="50" relative="1" as="geometry">
            <mxPoint x="475" y="660" as="sourcePoint" />
            <mxPoint x="525" y="610" as="targetPoint" />
            <Array as="points">
              <mxPoint x="510" y="650" />
              <mxPoint x="510" y="530" />
              <mxPoint x="550" y="470" />
            </Array>
          </mxGeometry>
        </mxCell>
        <mxCell id="t8WZ3Y-afBprxBisfAC7-25" value="修改" style="text;html=1;strokeColor=none;fillColor=none;align=center;verticalAlign=middle;whiteSpace=wrap;rounded=0;" vertex="1" parent="GTBIIHUijziVZcfz0fXT-1">
          <mxGeometry x="485" y="665" width="40" height="20" as="geometry" />
        </mxCell>
        <mxCell id="b1gxiZh0RMyyFPf4oJ1Y-0" value="" style="edgeStyle=orthogonalEdgeStyle;rounded=0;orthogonalLoop=1;jettySize=auto;html=1;" edge="1" parent="GTBIIHUijziVZcfz0fXT-1" source="b1gxiZh0RMyyFPf4oJ1Y-1">
          <mxGeometry relative="1" as="geometry">
            <mxPoint x="420" y="1410" as="targetPoint" />
          </mxGeometry>
        </mxCell>
        <mxCell id="b1gxiZh0RMyyFPf4oJ1Y-1" value="开始" style="rounded=1;whiteSpace=wrap;html=1;" vertex="1" parent="GTBIIHUijziVZcfz0fXT-1">
          <mxGeometry x="380" y="1330" width="80" height="40" as="geometry" />
        </mxCell>
        <mxCell id="b1gxiZh0RMyyFPf4oJ1Y-4" value="创建成功" style="rounded=1;whiteSpace=wrap;html=1;" vertex="1" parent="GTBIIHUijziVZcfz0fXT-1">
          <mxGeometry x="90" y="1330" width="80" height="40" as="geometry" />
        </mxCell>
        <mxCell id="b1gxiZh0RMyyFPf4oJ1Y-6" value="通知Agent删除实例" style="rounded=0;whiteSpace=wrap;html=1;" vertex="1" parent="GTBIIHUijziVZcfz0fXT-1">
          <mxGeometry x="347.5" y="1608" width="145" height="40" as="geometry" />
        </mxCell>
        <mxCell id="b1gxiZh0RMyyFPf4oJ1Y-8" value="" style="edgeStyle=orthogonalEdgeStyle;rounded=0;orthogonalLoop=1;jettySize=auto;html=1;" edge="1" parent="GTBIIHUijziVZcfz0fXT-1" source="b1gxiZh0RMyyFPf4oJ1Y-9" target="b1gxiZh0RMyyFPf4oJ1Y-17">
          <mxGeometry relative="1" as="geometry" />
        </mxCell>
        <mxCell id="b1gxiZh0RMyyFPf4oJ1Y-9" value="实例是否存在" style="rhombus;whiteSpace=wrap;html=1;" vertex="1" parent="GTBIIHUijziVZcfz0fXT-1">
          <mxGeometry x="335" y="1410" width="170" height="60" as="geometry" />
        </mxCell>
        <mxCell id="b1gxiZh0RMyyFPf4oJ1Y-11" value="" style="edgeStyle=orthogonalEdgeStyle;rounded=0;orthogonalLoop=1;jettySize=auto;html=1;" edge="1" parent="GTBIIHUijziVZcfz0fXT-1" source="b1gxiZh0RMyyFPf4oJ1Y-12" target="b1gxiZh0RMyyFPf4oJ1Y-14">
          <mxGeometry relative="1" as="geometry" />
        </mxCell>
        <mxCell id="b1gxiZh0RMyyFPf4oJ1Y-12" value="通知前端" style="whiteSpace=wrap;html=1;rounded=0;" vertex="1" parent="GTBIIHUijziVZcfz0fXT-1">
          <mxGeometry x="347.5" y="1753" width="150" height="40" as="geometry" />
        </mxCell>
        <mxCell id="b1gxiZh0RMyyFPf4oJ1Y-14" value="遍历查询每台主机状态" style="whiteSpace=wrap;html=1;rounded=0;" vertex="1" parent="GTBIIHUijziVZcfz0fXT-1">
          <mxGeometry x="347.75" y="1863" width="150" height="50" as="geometry" />
        </mxCell>
        <mxCell id="b1gxiZh0RMyyFPf4oJ1Y-17" value="创建实例ID" style="whiteSpace=wrap;html=1;" vertex="1" parent="GTBIIHUijziVZcfz0fXT-1">
          <mxGeometry x="360" y="1528" width="120" height="40" as="geometry" />
        </mxCell>
        <mxCell id="b1gxiZh0RMyyFPf4oJ1Y-18" value="" style="endArrow=classic;html=1;exitX=0.5;exitY=1;exitDx=0;exitDy=0;entryX=0.5;entryY=0;entryDx=0;entryDy=0;" edge="1" parent="GTBIIHUijziVZcfz0fXT-1" source="b1gxiZh0RMyyFPf4oJ1Y-17" target="b1gxiZh0RMyyFPf4oJ1Y-6">
          <mxGeometry width="50" height="50" relative="1" as="geometry">
            <mxPoint x="380" y="1728" as="sourcePoint" />
            <mxPoint x="430" y="1678" as="targetPoint" />
          </mxGeometry>
        </mxCell>
        <mxCell id="b1gxiZh0RMyyFPf4oJ1Y-24" value="RM处理" style="rounded=1;whiteSpace=wrap;html=1;align=center;" vertex="1" parent="GTBIIHUijziVZcfz0fXT-1">
          <mxGeometry x="580" y="1933" width="70" height="40" as="geometry" />
        </mxCell>
        <mxCell id="b1gxiZh0RMyyFPf4oJ1Y-25" value="consul" style="rounded=1;whiteSpace=wrap;html=1;align=center;" vertex="1" parent="GTBIIHUijziVZcfz0fXT-1">
          <mxGeometry x="700" y="1520" width="70" height="42" as="geometry" />
        </mxCell>
        <mxCell id="b1gxiZh0RMyyFPf4oJ1Y-27" value="下发Agent" style="rounded=1;whiteSpace=wrap;html=1;align=center;" vertex="1" parent="GTBIIHUijziVZcfz0fXT-1">
          <mxGeometry x="710" y="1938" width="70" height="30" as="geometry" />
        </mxCell>
        <mxCell id="b1gxiZh0RMyyFPf4oJ1Y-28" value="" style="endArrow=classic;html=1;entryX=0;entryY=0.5;entryDx=0;entryDy=0;exitX=1;exitY=0.5;exitDx=0;exitDy=0;" edge="1" parent="GTBIIHUijziVZcfz0fXT-1" source="b1gxiZh0RMyyFPf4oJ1Y-24" target="b1gxiZh0RMyyFPf4oJ1Y-27">
          <mxGeometry width="50" height="50" relative="1" as="geometry">
            <mxPoint x="380" y="2053" as="sourcePoint" />
            <mxPoint x="430" y="2003" as="targetPoint" />
          </mxGeometry>
        </mxCell>
        <mxCell id="b1gxiZh0RMyyFPf4oJ1Y-31" value="下发Agent" style="rounded=1;whiteSpace=wrap;html=1;align=center;" vertex="1" parent="GTBIIHUijziVZcfz0fXT-1">
          <mxGeometry x="710" y="1973" width="70" height="30" as="geometry" />
        </mxCell>
        <mxCell id="b1gxiZh0RMyyFPf4oJ1Y-32" value="下发Agent" style="rounded=1;whiteSpace=wrap;html=1;align=center;" vertex="1" parent="GTBIIHUijziVZcfz0fXT-1">
          <mxGeometry x="710" y="2023" width="70" height="30" as="geometry" />
        </mxCell>
        <mxCell id="b1gxiZh0RMyyFPf4oJ1Y-33" value="" style="endArrow=classic;html=1;entryX=0;entryY=0.5;entryDx=0;entryDy=0;exitX=1;exitY=0.5;exitDx=0;exitDy=0;" edge="1" parent="GTBIIHUijziVZcfz0fXT-1" source="b1gxiZh0RMyyFPf4oJ1Y-24" target="b1gxiZh0RMyyFPf4oJ1Y-31">
          <mxGeometry width="50" height="50" relative="1" as="geometry">
            <mxPoint x="380" y="2053" as="sourcePoint" />
            <mxPoint x="430" y="2003" as="targetPoint" />
          </mxGeometry>
        </mxCell>
        <mxCell id="b1gxiZh0RMyyFPf4oJ1Y-34" value="" style="endArrow=classic;html=1;entryX=0;entryY=0.5;entryDx=0;entryDy=0;exitX=1;exitY=0.5;exitDx=0;exitDy=0;" edge="1" parent="GTBIIHUijziVZcfz0fXT-1" source="b1gxiZh0RMyyFPf4oJ1Y-24" target="b1gxiZh0RMyyFPf4oJ1Y-32">
          <mxGeometry width="50" height="50" relative="1" as="geometry">
            <mxPoint x="380" y="2053" as="sourcePoint" />
            <mxPoint x="430" y="2003" as="targetPoint" />
          </mxGeometry>
        </mxCell>
        <mxCell id="b1gxiZh0RMyyFPf4oJ1Y-42" value="" style="curved=1;endArrow=classic;html=1;exitX=0;exitY=0.5;exitDx=0;exitDy=0;entryX=1;entryY=0.5;entryDx=0;entryDy=0;" edge="1" parent="GTBIIHUijziVZcfz0fXT-1" source="b1gxiZh0RMyyFPf4oJ1Y-9" target="b1gxiZh0RMyyFPf4oJ1Y-4">
          <mxGeometry width="50" height="50" relative="1" as="geometry">
            <mxPoint x="600" y="1530" as="sourcePoint" />
            <mxPoint x="650" y="1480" as="targetPoint" />
            <Array as="points">
              <mxPoint x="190" y="1380" />
            </Array>
          </mxGeometry>
        </mxCell>
        <mxCell id="b1gxiZh0RMyyFPf4oJ1Y-43" value="不存在" style="text;html=1;strokeColor=none;fillColor=none;align=center;verticalAlign=middle;whiteSpace=wrap;rounded=0;" vertex="1" parent="GTBIIHUijziVZcfz0fXT-1">
          <mxGeometry x="295" y="1400" width="40" height="20" as="geometry" />
        </mxCell>
        <mxCell id="b1gxiZh0RMyyFPf4oJ1Y-44" value="存在" style="text;html=1;strokeColor=none;fillColor=none;align=center;verticalAlign=middle;whiteSpace=wrap;rounded=0;" vertex="1" parent="GTBIIHUijziVZcfz0fXT-1">
          <mxGeometry x="420" y="1480" width="40" height="20" as="geometry" />
        </mxCell>
        <mxCell id="b1gxiZh0RMyyFPf4oJ1Y-45" value="" style="curved=1;endArrow=classic;html=1;exitX=0;exitY=0.5;exitDx=0;exitDy=0;entryX=1;entryY=0.5;entryDx=0;entryDy=0;" edge="1" parent="GTBIIHUijziVZcfz0fXT-1" source="b1gxiZh0RMyyFPf4oJ1Y-25" target="b1gxiZh0RMyyFPf4oJ1Y-17">
          <mxGeometry width="50" height="50" relative="1" as="geometry">
            <mxPoint x="460" y="1700" as="sourcePoint" />
            <mxPoint x="510" y="1650" as="targetPoint" />
            <Array as="points">
              <mxPoint x="670" y="1530" />
              <mxPoint x="630" y="1530" />
              <mxPoint x="590" y="1530" />
            </Array>
          </mxGeometry>
        </mxCell>
        <mxCell id="b1gxiZh0RMyyFPf4oJ1Y-46" value="获取实例信息" style="text;html=1;strokeColor=none;fillColor=none;align=center;verticalAlign=middle;whiteSpace=wrap;rounded=0;" vertex="1" parent="GTBIIHUijziVZcfz0fXT-1">
          <mxGeometry x="557.5" y="1508" width="102.5" height="20" as="geometry" />
        </mxCell>
        <mxCell id="b1gxiZh0RMyyFPf4oJ1Y-49" value="mdw Agent删除数据库" style="whiteSpace=wrap;html=1;rounded=0;" vertex="1" parent="GTBIIHUijziVZcfz0fXT-1">
          <mxGeometry x="350" y="1683" width="145" height="40" as="geometry" />
        </mxCell>
        <mxCell id="b1gxiZh0RMyyFPf4oJ1Y-50" value="" style="curved=1;endArrow=classic;html=1;exitX=1;exitY=0.5;exitDx=0;exitDy=0;entryX=0.5;entryY=1;entryDx=0;entryDy=0;" edge="1" parent="GTBIIHUijziVZcfz0fXT-1" source="b1gxiZh0RMyyFPf4oJ1Y-49" target="b1gxiZh0RMyyFPf4oJ1Y-25">
          <mxGeometry width="50" height="50" relative="1" as="geometry">
            <mxPoint x="460" y="1863" as="sourcePoint" />
            <mxPoint x="510" y="1813" as="targetPoint" />
            <Array as="points">
              <mxPoint x="690" y="1603" />
            </Array>
          </mxGeometry>
        </mxCell>
        <mxCell id="b1gxiZh0RMyyFPf4oJ1Y-51" value="1、修改状态为deleting" style="text;html=1;strokeColor=none;fillColor=none;align=center;verticalAlign=middle;whiteSpace=wrap;rounded=0;" vertex="1" parent="GTBIIHUijziVZcfz0fXT-1">
          <mxGeometry x="570" y="1663" width="140" height="20" as="geometry" />
        </mxCell>
        <mxCell id="b1gxiZh0RMyyFPf4oJ1Y-52" value="2、修改状态为deleted" style="text;html=1;strokeColor=none;fillColor=none;align=center;verticalAlign=middle;whiteSpace=wrap;rounded=0;" vertex="1" parent="GTBIIHUijziVZcfz0fXT-1">
          <mxGeometry x="565" y="1683" width="150" height="20" as="geometry" />
        </mxCell>
        <mxCell id="b1gxiZh0RMyyFPf4oJ1Y-53" value="" style="endArrow=classic;html=1;exitX=0.5;exitY=1;exitDx=0;exitDy=0;" edge="1" parent="GTBIIHUijziVZcfz0fXT-1" source="b1gxiZh0RMyyFPf4oJ1Y-6" target="b1gxiZh0RMyyFPf4oJ1Y-49">
          <mxGeometry width="50" height="50" relative="1" as="geometry">
            <mxPoint x="460" y="1843" as="sourcePoint" />
            <mxPoint x="510" y="1793" as="targetPoint" />
          </mxGeometry>
        </mxCell>
        <mxCell id="b1gxiZh0RMyyFPf4oJ1Y-54" value="" style="endArrow=classic;html=1;exitX=0.5;exitY=1;exitDx=0;exitDy=0;entryX=0.5;entryY=0;entryDx=0;entryDy=0;" edge="1" parent="GTBIIHUijziVZcfz0fXT-1" source="b1gxiZh0RMyyFPf4oJ1Y-49" target="b1gxiZh0RMyyFPf4oJ1Y-12">
          <mxGeometry width="50" height="50" relative="1" as="geometry">
            <mxPoint x="429.9999999999998" y="1631" as="sourcePoint" />
            <mxPoint x="520" y="1873" as="targetPoint" />
          </mxGeometry>
        </mxCell>
        <mxCell id="b1gxiZh0RMyyFPf4oJ1Y-55" value="" style="curved=1;endArrow=classic;html=1;exitX=0;exitY=0.5;exitDx=0;exitDy=0;entryX=0.5;entryY=1;entryDx=0;entryDy=0;" edge="1" parent="GTBIIHUijziVZcfz0fXT-1" source="b1gxiZh0RMyyFPf4oJ1Y-12" target="b1gxiZh0RMyyFPf4oJ1Y-4">
          <mxGeometry width="50" height="50" relative="1" as="geometry">
            <mxPoint x="340" y="1863" as="sourcePoint" />
            <mxPoint x="335" y="1803" as="targetPoint" />
            <Array as="points">
              <mxPoint x="220" y="1553" />
            </Array>
          </mxGeometry>
        </mxCell>
        <mxCell id="b1gxiZh0RMyyFPf4oJ1Y-56" value="起协程" style="text;html=1;strokeColor=none;fillColor=none;align=center;verticalAlign=middle;whiteSpace=wrap;rounded=0;" vertex="1" parent="GTBIIHUijziVZcfz0fXT-1">
          <mxGeometry x="430" y="1813" width="40" height="20" as="geometry" />
        </mxCell>
        <mxCell id="b1gxiZh0RMyyFPf4oJ1Y-57" value="" style="curved=1;endArrow=classic;html=1;entryX=1;entryY=0.25;entryDx=0;entryDy=0;exitX=0.5;exitY=1;exitDx=0;exitDy=0;" edge="1" parent="GTBIIHUijziVZcfz0fXT-1" source="b1gxiZh0RMyyFPf4oJ1Y-25" target="b1gxiZh0RMyyFPf4oJ1Y-14">
          <mxGeometry width="50" height="50" relative="1" as="geometry">
            <mxPoint x="740" y="1753" as="sourcePoint" />
            <mxPoint x="790" y="1485" as="targetPoint" />
            <Array as="points">
              <mxPoint x="780" y="1603" />
              <mxPoint x="680" y="1813" />
            </Array>
          </mxGeometry>
        </mxCell>
        <mxCell id="b1gxiZh0RMyyFPf4oJ1Y-59" value="查询实例状态" style="text;html=1;strokeColor=none;fillColor=none;align=center;verticalAlign=middle;whiteSpace=wrap;rounded=0;" vertex="1" parent="GTBIIHUijziVZcfz0fXT-1">
          <mxGeometry x="620" y="1833" width="40" height="20" as="geometry" />
        </mxCell>
        <mxCell id="b1gxiZh0RMyyFPf4oJ1Y-62" value="是否为deleted" style="rhombus;whiteSpace=wrap;html=1;align=center;" vertex="1" parent="GTBIIHUijziVZcfz0fXT-1">
          <mxGeometry x="344.25" y="1953" width="151.5" height="60" as="geometry" />
        </mxCell>
        <mxCell id="b1gxiZh0RMyyFPf4oJ1Y-63" value="是否超过15分钟" style="rhombus;whiteSpace=wrap;html=1;align=center;" vertex="1" parent="GTBIIHUijziVZcfz0fXT-1">
          <mxGeometry x="160" y="1953" width="130" height="60" as="geometry" />
        </mxCell>
        <mxCell id="b1gxiZh0RMyyFPf4oJ1Y-64" value="" style="endArrow=classic;html=1;exitX=0.5;exitY=1;exitDx=0;exitDy=0;entryX=0.5;entryY=0;entryDx=0;entryDy=0;" edge="1" parent="GTBIIHUijziVZcfz0fXT-1" source="b1gxiZh0RMyyFPf4oJ1Y-14" target="b1gxiZh0RMyyFPf4oJ1Y-62">
          <mxGeometry width="50" height="50" relative="1" as="geometry">
            <mxPoint x="460" y="1983" as="sourcePoint" />
            <mxPoint x="510" y="1933" as="targetPoint" />
          </mxGeometry>
        </mxCell>
        <mxCell id="b1gxiZh0RMyyFPf4oJ1Y-65" value="" style="endArrow=classic;html=1;exitX=0;exitY=0.5;exitDx=0;exitDy=0;" edge="1" parent="GTBIIHUijziVZcfz0fXT-1" source="b1gxiZh0RMyyFPf4oJ1Y-62" target="b1gxiZh0RMyyFPf4oJ1Y-63">
          <mxGeometry width="50" height="50" relative="1" as="geometry">
            <mxPoint x="432" y="1963" as="sourcePoint" />
            <mxPoint x="432.5000000000002" y="1993" as="targetPoint" />
          </mxGeometry>
        </mxCell>
        <mxCell id="b1gxiZh0RMyyFPf4oJ1Y-66" value="否" style="text;html=1;strokeColor=none;fillColor=none;align=center;verticalAlign=middle;whiteSpace=wrap;rounded=0;" vertex="1" parent="GTBIIHUijziVZcfz0fXT-1">
          <mxGeometry x="305" y="1993" width="40" height="20" as="geometry" />
        </mxCell>
        <mxCell id="b1gxiZh0RMyyFPf4oJ1Y-67" value="" style="curved=1;endArrow=classic;html=1;exitX=0;exitY=0.5;exitDx=0;exitDy=0;entryX=0.5;entryY=1;entryDx=0;entryDy=0;" edge="1" parent="GTBIIHUijziVZcfz0fXT-1" source="b1gxiZh0RMyyFPf4oJ1Y-63" target="b1gxiZh0RMyyFPf4oJ1Y-4">
          <mxGeometry width="50" height="50" relative="1" as="geometry">
            <mxPoint x="460" y="1793" as="sourcePoint" />
            <mxPoint x="510" y="1743" as="targetPoint" />
            <Array as="points">
              <mxPoint x="130" y="1863" />
              <mxPoint x="70" y="1723" />
              <mxPoint x="70" y="1563" />
            </Array>
          </mxGeometry>
        </mxCell>
        <mxCell id="b1gxiZh0RMyyFPf4oJ1Y-68" value="是" style="text;html=1;strokeColor=none;fillColor=none;align=center;verticalAlign=middle;whiteSpace=wrap;rounded=0;" vertex="1" parent="GTBIIHUijziVZcfz0fXT-1">
          <mxGeometry x="120" y="1968" width="40" height="20" as="geometry" />
        </mxCell>
        <mxCell id="b1gxiZh0RMyyFPf4oJ1Y-69" value="" style="curved=1;endArrow=classic;html=1;exitX=0.5;exitY=0;exitDx=0;exitDy=0;entryX=0;entryY=0.5;entryDx=0;entryDy=0;" edge="1" parent="GTBIIHUijziVZcfz0fXT-1" source="b1gxiZh0RMyyFPf4oJ1Y-63" target="b1gxiZh0RMyyFPf4oJ1Y-14">
          <mxGeometry width="50" height="50" relative="1" as="geometry">
            <mxPoint x="460" y="1983" as="sourcePoint" />
            <mxPoint x="510" y="1933" as="targetPoint" />
            <Array as="points">
              <mxPoint x="240" y="1928" />
            </Array>
          </mxGeometry>
        </mxCell>
        <mxCell id="b1gxiZh0RMyyFPf4oJ1Y-70" value="否" style="text;html=1;strokeColor=none;fillColor=none;align=center;verticalAlign=middle;whiteSpace=wrap;rounded=0;" vertex="1" parent="GTBIIHUijziVZcfz0fXT-1">
          <mxGeometry x="190" y="1933" width="40" height="20" as="geometry" />
        </mxCell>
        <mxCell id="b1gxiZh0RMyyFPf4oJ1Y-74" value="" style="edgeStyle=orthogonalEdgeStyle;curved=1;orthogonalLoop=1;jettySize=auto;html=1;" edge="1" parent="GTBIIHUijziVZcfz0fXT-1" source="b1gxiZh0RMyyFPf4oJ1Y-71" target="b1gxiZh0RMyyFPf4oJ1Y-73">
          <mxGeometry relative="1" as="geometry" />
        </mxCell>
        <mxCell id="b1gxiZh0RMyyFPf4oJ1Y-77" style="edgeStyle=orthogonalEdgeStyle;curved=1;orthogonalLoop=1;jettySize=auto;html=1;entryX=0;entryY=0.5;entryDx=0;entryDy=0;" edge="1" parent="GTBIIHUijziVZcfz0fXT-1" source="b1gxiZh0RMyyFPf4oJ1Y-71" target="b1gxiZh0RMyyFPf4oJ1Y-24">
          <mxGeometry relative="1" as="geometry" />
        </mxCell>
        <mxCell id="b1gxiZh0RMyyFPf4oJ1Y-71" value="通知RM删除" style="rounded=0;whiteSpace=wrap;html=1;align=center;" vertex="1" parent="GTBIIHUijziVZcfz0fXT-1">
          <mxGeometry x="362.5" y="2083" width="120" height="40" as="geometry" />
        </mxCell>
        <mxCell id="b1gxiZh0RMyyFPf4oJ1Y-72" value="" style="endArrow=classic;html=1;exitX=0.5;exitY=1;exitDx=0;exitDy=0;entryX=0.5;entryY=0;entryDx=0;entryDy=0;" edge="1" parent="GTBIIHUijziVZcfz0fXT-1" source="b1gxiZh0RMyyFPf4oJ1Y-62" target="b1gxiZh0RMyyFPf4oJ1Y-71">
          <mxGeometry width="50" height="50" relative="1" as="geometry">
            <mxPoint x="460" y="2173" as="sourcePoint" />
            <mxPoint x="510" y="2123" as="targetPoint" />
          </mxGeometry>
        </mxCell>
        <mxCell id="b1gxiZh0RMyyFPf4oJ1Y-76" value="" style="edgeStyle=orthogonalEdgeStyle;curved=1;orthogonalLoop=1;jettySize=auto;html=1;" edge="1" parent="GTBIIHUijziVZcfz0fXT-1" source="b1gxiZh0RMyyFPf4oJ1Y-73" target="b1gxiZh0RMyyFPf4oJ1Y-75">
          <mxGeometry relative="1" as="geometry" />
        </mxCell>
        <mxCell id="b1gxiZh0RMyyFPf4oJ1Y-73" value="删除实例信息" style="whiteSpace=wrap;html=1;rounded=0;" vertex="1" parent="GTBIIHUijziVZcfz0fXT-1">
          <mxGeometry x="362.5" y="2153" width="120" height="40" as="geometry" />
        </mxCell>
        <mxCell id="b1gxiZh0RMyyFPf4oJ1Y-75" value="结束" style="rounded=1;whiteSpace=wrap;html=1;align=center;" vertex="1" parent="GTBIIHUijziVZcfz0fXT-1">
          <mxGeometry x="383.75" y="2223" width="77.5" height="30" as="geometry" />
        </mxCell>
      </root>
    </mxGraphModel>
  </diagram>
</mxfile>
